<?xml version="1.0" standalone="no"?>
<!DOCTYPE svg PUBLIC "-//W3C//DTD SVG 20010904//EN"
 "http://www.w3.org/TR/2001/REC-SVG-20010904/DTD/svg10.dtd">
<svg version="1.0" xmlns="http://www.w3.org/2000/svg"
 width="1000.000000pt" height="1000.000000pt" viewBox="0 0 1000.000000 1000.000000"
 preserveAspectRatio="xMidYMid meet">
<metadata>
Created by potrace 1.14, written by Peter Selinger 2001-2017
</metadata>
<g transform="translate(0.000000,1000.000000) scale(0.100000,-0.100000)"
fill="#000000" stroke="none">
<path d="M4482 9940 c-13 -6 -38 -21 -55 -34 -31 -24 -35 -24 -72 -11 -57 20
-105 18 -145 -7 -19 -11 -50 -22 -69 -24 -18 -2 -44 -10 -57 -19 -13 -8 -55
-19 -93 -25 -39 -5 -89 -17 -113 -26 -24 -9 -87 -27 -141 -40 -111 -28 -161
-50 -197 -89 -14 -15 -47 -38 -75 -52 -27 -14 -57 -34 -66 -45 -11 -14 -29
-21 -58 -22 -35 -2 -49 -10 -91 -51 l-48 -48 -124 -1 c-106 -1 -128 -4 -163
-23 -22 -12 -61 -24 -87 -26 -34 -3 -58 -14 -90 -39 -24 -20 -57 -43 -75 -52
-31 -16 -41 -26 -86 -95 -21 -33 -40 -42 -146 -77 -58 -18 -86 -46 -122 -116
-19 -37 -44 -67 -74 -89 -35 -25 -49 -45 -65 -88 -12 -30 -37 -77 -57 -104
-29 -39 -40 -47 -57 -42 -12 3 -69 8 -128 11 l-107 4 -35 -30 c-55 -49 -96
-118 -96 -162 0 -32 -3 -38 -21 -38 -31 0 -56 -16 -147 -93 -89 -75 -105 -100
-101 -157 2 -24 -5 -49 -19 -72 -24 -38 -27 -63 -13 -101 12 -32 5 -40 -54
-55 -54 -14 -105 -58 -105 -92 0 -16 -7 -20 -31 -20 -43 0 -66 -15 -89 -59
-11 -22 -35 -49 -54 -60 -29 -18 -66 -72 -66 -97 0 -4 -10 -18 -22 -31 -12
-13 -31 -39 -42 -58 -12 -19 -38 -59 -58 -88 -21 -30 -45 -76 -55 -102 -16
-43 -23 -49 -61 -61 -76 -22 -106 -69 -91 -147 6 -35 4 -39 -40 -75 -25 -21
-60 -44 -78 -51 -45 -18 -60 -40 -65 -91 -6 -50 -24 -98 -110 -280 -65 -135
-65 -136 -116 -225 -59 -102 -62 -109 -62 -145 0 -19 -4 -49 -9 -67 -5 -17 -6
-48 -1 -67 6 -28 3 -44 -16 -80 -15 -28 -24 -62 -24 -89 0 -25 -7 -61 -15 -80
-8 -20 -15 -57 -15 -81 0 -32 -8 -56 -25 -82 -21 -31 -25 -48 -25 -109 0 -54
-5 -82 -22 -116 -19 -37 -23 -63 -25 -164 -1 -66 -3 -141 -3 -167 -1 -27 -1
-55 -1 -63 3 -35 4 -94 1 -140 -5 -99 -4 -251 2 -277 4 -15 10 -65 14 -110 3
-46 12 -96 18 -113 9 -21 9 -40 3 -63 -7 -22 -7 -40 1 -56 6 -13 8 -41 5 -62
-4 -32 1 -46 25 -80 17 -23 39 -59 50 -81 27 -51 38 -60 97 -74 82 -19 188
-61 213 -83 17 -16 29 -54 51 -156 40 -183 87 -391 106 -471 15 -63 15 -67 -6
-113 -17 -39 -19 -53 -10 -72 6 -13 8 -44 5 -68 -8 -57 14 -81 84 -91 60 -8
62 -10 95 -93 14 -34 57 -118 95 -185 38 -67 89 -158 112 -202 141 -264 322
-525 549 -793 118 -139 190 -228 330 -409 44 -58 64 -115 55 -160 -8 -39 17
-88 54 -107 15 -7 48 -16 74 -18 57 -6 74 -18 82 -62 8 -42 120 -186 189 -244
29 -24 73 -54 100 -68 47 -24 47 -24 47 -77 0 -60 29 -130 58 -146 12 -6 42
-11 68 -11 59 0 126 -37 143 -79 7 -16 22 -38 34 -49 36 -33 159 -103 192
-109 16 -3 53 -18 80 -34 28 -15 75 -34 105 -43 35 -10 66 -27 85 -46 17 -18
39 -37 50 -43 25 -13 222 -53 253 -51 12 1 35 2 51 3 53 2 88 43 117 138 22
72 31 88 56 101 17 10 49 32 71 50 41 33 41 33 121 27 45 -4 133 -8 196 -10
133 -3 164 -13 204 -62 33 -39 116 -83 159 -83 15 0 42 7 59 16 24 12 46 14
93 9 54 -5 70 -3 106 16 24 12 92 34 150 50 134 35 166 48 213 90 l38 33 117
-2 c104 -2 153 -6 216 -18 11 -2 53 3 93 12 56 12 77 22 90 41 38 56 46 59
183 82 78 13 155 33 184 46 98 47 191 77 277 90 66 10 114 26 208 69 67 31
139 69 159 85 48 38 109 68 155 76 26 5 58 25 98 61 32 29 80 65 106 80 26 15
83 55 127 89 44 34 114 84 155 112 41 28 105 77 141 110 59 54 74 62 139 77
40 9 82 16 93 16 12 0 63 41 126 102 285 275 262 256 316 263 54 7 122 49 159
98 17 24 22 46 24 131 l4 103 56 61 c32 33 69 64 83 67 15 4 53 29 85 56 32
27 65 49 74 49 28 0 133 -62 186 -109 73 -66 249 -172 294 -178 54 -7 134 22
179 66 32 29 41 47 50 96 7 33 14 71 17 83 3 13 25 45 49 71 25 26 56 74 71
107 14 32 36 70 49 84 36 39 134 233 146 290 6 28 31 87 55 131 51 92 71 169
84 319 5 58 12 116 15 128 3 13 8 72 11 132 4 81 2 123 -11 171 -15 62 -15 66
6 132 19 59 27 70 59 87 44 23 97 80 107 118 14 48 10 1142 -4 1180 -10 27
-10 60 2 165 23 202 19 319 -15 532 -21 129 -40 209 -61 263 -17 42 -42 135
-56 207 -25 131 -39 171 -72 204 -15 15 -45 97 -77 211 -3 14 -31 71 -60 128
-30 56 -54 108 -54 116 0 7 -13 31 -29 54 -17 22 -43 67 -60 100 -16 33 -44
71 -60 85 -17 14 -31 34 -31 44 0 39 -22 95 -50 127 -16 18 -33 52 -39 76 -5
23 -23 56 -39 74 -16 17 -42 56 -57 86 -14 30 -33 62 -40 70 -7 8 -28 43 -45
77 -28 55 -53 83 -156 174 -16 14 -48 59 -71 100 -55 97 -268 311 -378 379
-20 12 -42 35 -50 50 -8 15 -38 48 -67 73 -29 25 -75 73 -103 107 -30 37 -81
82 -130 114 -44 30 -91 64 -105 77 -14 13 -37 29 -51 35 -14 7 -47 31 -74 54
-27 23 -67 53 -89 67 -23 14 -54 37 -70 50 -16 14 -74 47 -129 74 -54 28 -124
67 -155 88 -32 21 -77 49 -102 61 -25 13 -64 36 -88 52 -23 16 -70 40 -105 52
-34 13 -108 44 -163 70 -56 25 -111 46 -123 46 -11 0 -41 16 -67 35 -25 19
-58 37 -72 40 -15 3 -74 21 -132 40 -58 19 -143 41 -190 50 -119 22 -146 30
-219 60 -61 26 -65 26 -103 11 -40 -15 -41 -15 -77 14 -37 30 -61 38 -141 45
-25 2 -65 8 -90 13 -25 6 -74 8 -110 5 -38 -3 -112 2 -180 12 -91 13 -181 16
-425 15 -170 0 -341 2 -380 6 -51 4 -82 2 -113 -9 -38 -13 -48 -13 -78 -1 -38
16 -41 16 -72 4z m68 -78 c8 -2 25 -5 36 -6 25 -1 21 -21 -8 -49 -17 -17 -18
-17 -19 3 -1 11 -3 25 -4 30 -1 6 -3 13 -4 16 0 4 -7 1 -14 -5 -15 -12 -27 -5
-27 16 0 9 5 11 13 6 6 -4 19 -9 27 -11z m170 7 c0 -5 -4 -8 -9 -4 -12 7 -41
-22 -41 -41 0 -8 5 -14 10 -14 6 0 10 -5 10 -11 0 -8 -4 -8 -12 -1 -7 5 -24
12 -38 14 l-25 3 32 33 c30 31 73 43 73 21z m422 1 c62 0 87 -3 82 -11 -3 -6
-19 -9 -35 -7 -21 3 -30 0 -35 -14 -7 -23 -15 -23 -37 2 -23 27 -51 27 -44 0
4 -17 2 -20 -14 -15 -12 4 -21 1 -25 -9 -3 -9 -14 -16 -23 -16 -10 0 -12 3 -5
8 23 15 23 41 1 58 -22 16 -21 16 12 10 18 -3 74 -6 123 -6z m198 -4 c0 -8 -7
-16 -15 -20 -9 -3 -15 0 -15 9 0 8 -7 15 -15 15 -9 0 -15 -9 -15 -25 0 -17 6
-25 17 -25 13 0 14 -3 6 -11 -9 -9 -9 -16 0 -31 10 -15 9 -20 -3 -28 -12 -8
-16 -3 -18 21 -3 24 -9 31 -33 36 -20 4 -29 12 -29 24 0 11 5 19 10 19 6 0 10
7 10 15 0 11 12 15 50 15 36 0 50 -4 50 -14z m79 8 c23 -5 31 -12 31 -29 0
-12 -3 -24 -6 -27 -10 -11 -62 22 -67 42 -6 22 -3 23 42 14z m-570 -36 c-9
-18 -24 -17 -24 0 0 4 -3 12 -7 18 -5 7 1 10 17 6 21 -4 23 -7 14 -24z m91 18
c0 -8 -7 -17 -16 -20 -11 -4 -14 -13 -10 -31 6 -25 -7 -35 -19 -15 -3 6 -16
10 -28 11 -15 0 -17 2 -7 6 24 9 60 45 54 54 -3 5 2 9 10 9 9 0 16 -6 16 -14z
m580 -1 c0 -12 -19 -12 -23 0 -4 9 -1 12 9 8 7 -3 14 -7 14 -8z m-1053 -20 c0
-8 -4 -15 -9 -15 -10 0 -11 14 -1 23 9 10 10 9 10 -8z m1209 4 c4 -7 -1 -16
-10 -21 -9 -5 -16 -15 -16 -23 0 -8 -9 -20 -20 -28 -18 -12 -19 -16 -5 -27 12
-10 12 -16 3 -34 -11 -19 -13 -18 -20 23 -4 25 -12 47 -16 50 -5 3 -9 17 -8
31 1 15 -4 24 -11 23 -7 -2 -13 2 -13 7 0 14 107 13 116 -1z m84 -19 c-24 -33
-38 -38 -46 -15 -11 27 4 45 36 45 l31 0 -21 -30z m-1444 11 c13 -1 28 -31 20
-39 -3 -2 -17 5 -31 16 -15 12 -33 18 -41 15 -8 -3 -14 -1 -14 4 0 6 12 9 28
7 15 -1 32 -2 38 -3z m1565 -3 c41 -14 50 -25 39 -53 -9 -23 6 -59 21 -50 5 4
9 -3 9 -14 0 -11 -4 -23 -10 -26 -5 -3 -10 1 -10 9 0 23 -10 20 -42 -11 -34
-33 -48 -24 -19 13 25 31 27 69 6 78 -8 3 -15 9 -14 13 4 22 -3 23 -27 4 -44
-35 -76 -23 -48 17 12 18 19 20 35 12 15 -9 19 -7 19 5 0 18 -1 18 41 3z m104
-20 c-19 -11 -30 -5 -21 11 4 6 14 7 22 4 15 -5 14 -7 -1 -15z m-1547 4 c15
-2 16 -32 2 -32 -11 0 -70 28 -70 33 0 3 43 2 68 -1z m1114 -17 c3 -14 2 -25
-2 -25 -14 0 -32 29 -25 40 11 17 22 11 27 -15z m-332 -19 c0 -7 11 -25 25
-39 14 -14 22 -28 17 -31 -6 -3 -26 14 -46 38 -41 50 -47 73 -16 56 11 -6 20
-17 20 -24z m-1059 2 l12 -22 8 22 c5 12 16 22 25 22 16 0 16 -3 -8 -52 -17
-37 -31 -35 -48 5 -7 17 -15 35 -18 40 -2 4 1 7 7 7 6 0 16 -10 22 -22z m639
-19 c0 -11 -4 -17 -10 -14 -5 3 -10 13 -10 21 0 8 5 14 10 14 6 0 10 -9 10
-21z m1060 12 c0 -12 -31 -43 -37 -37 -7 7 16 46 27 46 6 0 10 -4 10 -9z m211
-13 c6 -13 8 -20 4 -16 -14 13 -34 -25 -24 -44 7 -13 4 -21 -16 -34 -14 -9
-25 -25 -25 -35 0 -20 -17 -35 -28 -24 -4 3 1 19 10 35 11 19 14 42 11 74 -5
42 -4 46 15 46 12 0 24 5 27 10 9 15 13 13 26 -12z m115 7 c-1 -8 -8 -21 -14
-27 -7 -7 -12 -17 -12 -22 -1 -12 -35 -56 -44 -56 -3 0 -6 9 -6 20 0 11 -4 20
-9 20 -13 0 -1 40 13 40 6 0 22 9 36 20 30 24 39 25 36 5z m-2106 -4 c0 -5 -8
-17 -17 -26 -16 -16 -18 -16 -30 1 -13 17 -11 20 14 25 15 4 29 7 31 8 1 0 2
-3 2 -8z m1350 -5 c0 -11 -19 -15 -25 -6 -3 5 1 10 9 10 9 0 16 -2 16 -4z
m840 -11 c14 -8 19 -14 13 -15 -7 0 -13 -6 -13 -14 0 -9 -7 -12 -20 -9 -19 5
-24 -4 -21 -33 2 -14 -35 -47 -47 -43 -6 2 -2 20 9 39 10 19 24 47 31 63 14
31 15 31 48 12z m-1213 -17 c-3 -8 -6 -5 -6 6 -1 11 2 17 5 13 3 -3 4 -12 1
-19z m290 -20 c-3 -8 -6 -5 -6 6 -1 11 2 17 5 13 3 -3 4 -12 1 -19z m213 7 c0
-8 -4 -15 -10 -15 -5 0 -10 7 -10 15 0 8 5 15 10 15 6 0 10 -7 10 -15z m772 7
c11 -4 14 -12 9 -20 -9 -16 -41 -5 -41 14 0 15 6 16 32 6z m-2462 -17 c0 -17
-2 -18 -25 -9 -13 5 -14 8 -3 15 19 13 28 11 28 -6z m820 5 c0 -5 -4 -10 -10
-10 -5 0 -10 5 -10 10 0 6 5 10 10 10 6 0 10 -4 10 -10z m730 -10 c9 -16 8
-20 -5 -20 -8 0 -15 9 -15 20 0 11 2 20 5 20 2 0 9 -9 15 -20z m397 13 c-2 -5
-7 -16 -10 -26 -6 -17 -7 -17 -25 0 -17 17 -17 18 8 24 14 4 26 7 28 8 2 0 1
-2 -1 -6z m681 -19 c40 -8 48 -38 16 -59 -19 -12 -24 -24 -24 -55 0 -21 -4
-42 -10 -45 -5 -3 -10 3 -10 15 0 12 -4 30 -10 40 -7 13 -6 19 5 24 17 6 20
42 5 51 -6 4 -8 11 -5 16 3 5 -1 6 -9 3 -9 -3 -16 -1 -16 5 0 12 14 14 58 5z
m-2772 -23 c-4 -5 -3 -11 1 -13 5 -1 5 -21 2 -43 -5 -40 -5 -40 -17 -13 -6 14
-16 29 -22 33 -5 3 -8 11 -5 16 4 5 -2 9 -12 10 -13 1 -11 3 7 9 35 11 52 12
46 1z m374 -46 c19 -6 29 -25 13 -25 -17 1 -63 50 -63 67 1 14 4 11 15 -9 8
-15 24 -29 35 -33z m1216 28 c-10 -10 -19 5 -10 18 6 11 8 11 12 0 2 -7 1 -15
-2 -18z m294 23 c0 -3 -4 -8 -10 -11 -5 -3 -10 -1 -10 4 0 6 5 11 10 11 6 0
10 -2 10 -4z m837 -9 c11 4 14 2 11 -8 -3 -8 -10 -14 -17 -14 -7 0 -18 -7 -24
-16 -16 -21 -53 -33 -62 -19 -3 5 0 10 7 10 7 0 24 14 38 31 13 17 26 27 28
21 2 -6 10 -8 19 -5z m167 -22 c-3 -8 -12 -11 -20 -8 -10 3 -14 -2 -14 -18 0
-13 -5 -31 -10 -39 -22 -33 -35 35 -15 82 5 13 12 15 35 6 18 -6 27 -15 24
-23z m-2794 15 c0 -5 -4 -10 -10 -10 -5 0 -10 5 -10 10 0 6 5 10 10 10 6 0 10
-4 10 -10z m1650 -16 c0 -8 -4 -12 -10 -9 -5 3 -10 13 -10 21 0 8 5 12 10 9 6
-3 10 -13 10 -21z m850 16 c0 -5 -4 -10 -9 -10 -6 0 -18 -14 -28 -30 -17 -29
-18 -30 -25 -9 -6 15 -3 28 8 40 18 20 54 26 54 9z m-635 -26 l16 -25 -25 16
c-26 17 -34 35 -17 35 5 0 16 -12 26 -26z m275 10 c0 -8 -4 -12 -10 -9 -5 3
-10 10 -10 16 0 5 5 9 10 9 6 0 10 -7 10 -16z m-2290 -24 c0 -15 -62 -23 -71
-9 -4 7 -5 17 -3 21 9 14 32 8 37 -9 3 -13 5 -11 6 6 1 20 3 21 16 11 8 -7 15
-16 15 -20z m3030 -5 c0 -27 -19 -25 -40 5 l-21 29 31 -10 c16 -6 30 -17 30
-24z m-852 8 c-2 -9 -8 -18 -15 -20 -7 -3 -9 3 -6 16 6 25 26 28 21 4z m232 3
c0 -15 -18 -31 -26 -23 -7 7 7 37 17 37 5 0 9 -6 9 -14z m-1814 -23 c-7 -7
-26 7 -26 19 0 6 6 6 15 -2 9 -7 13 -15 11 -17z m414 -10 c0 -13 -3 -13 -15
-3 -8 7 -15 16 -15 21 0 5 7 6 15 3 8 -4 15 -13 15 -21z m2090 13 c0 -20 26
-40 35 -26 5 8 13 6 26 -6 19 -17 18 -18 -17 -42 -32 -22 -38 -23 -46 -9 -4 9
-14 22 -22 29 -7 7 -16 26 -20 41 -6 24 -4 27 19 27 15 0 25 -6 25 -14z
m-1390 -17 c0 -6 -4 -7 -10 -4 -5 3 -10 11 -10 16 0 6 5 7 10 4 6 -3 10 -11
10 -16z m-1790 -24 l23 -25 -32 0 c-19 0 -30 4 -26 10 3 6 -2 10 -12 10 -17 1
-17 2 1 15 24 18 18 20 46 -10z m2440 5 c-9 -17 -30 -28 -30 -16 0 16 15 36
26 36 12 0 12 -4 4 -20z m-450 -20 c-6 -11 -15 -20 -20 -20 -6 0 -5 9 2 20 7
11 16 20 21 20 4 0 3 -9 -3 -20z m748 -13 c3 -26 -40 -97 -59 -97 -15 0 -10
22 7 34 8 7 18 31 21 54 6 47 26 52 31 9z m-903 5 c-3 -3 -11 0 -18 7 -9 10
-8 11 6 5 10 -3 15 -9 12 -12z m-1930 -14 c-4 -37 -4 -38 -19 -38 -19 0 -29
30 -15 46 18 21 37 17 34 -8z m1225 3 c0 -11 -4 -23 -10 -26 -6 -4 -10 5 -10
19 0 14 5 26 10 26 6 0 10 -9 10 -19z m1930 8 c0 -5 -13 -15 -29 -24 -31 -15
-48 -7 -38 19 5 14 67 18 67 5z m-950 -9 c0 -5 -4 -10 -10 -10 -5 0 -10 5 -10
10 0 6 5 10 10 10 6 0 10 -4 10 -10z m518 -12 c-9 -13 -23 -25 -33 -26 -16 -4
-16 -2 1 22 25 33 54 37 32 4z m710 12 c52 0 56 -14 17 -56 -28 -30 -38 -36
-45 -25 -5 9 -4 21 3 32 14 23 0 39 -16 19 -16 -21 -65 -41 -72 -30 -7 11 22
40 41 40 8 0 14 7 14 16 0 11 5 14 16 10 9 -3 28 -6 42 -6z m-3088 -15 c0 -9
-6 -12 -16 -8 -13 5 -13 7 -2 14 17 11 18 11 18 -6z m2186 -35 c7 0 15 -4 18
-9 3 -4 -12 -8 -34 -8 -43 0 -50 11 -27 48 12 20 12 20 21 -5 6 -14 15 -26 22
-26z m564 -2 c0 -7 -5 -20 -10 -28 -7 -12 -12 -12 -22 -2 -9 9 -8 15 8 27 24
18 24 18 24 3z m470 -19 c0 -11 -8 -31 -17 -45 -14 -21 -15 -31 -5 -56 14 -37
0 -71 -35 -87 -34 -16 -43 -14 -43 9 0 10 10 25 23 31 31 17 38 31 23 49 -25
29 -25 57 0 81 13 12 24 28 24 35 0 8 6 11 15 8 8 -4 15 -15 15 -25z m-3605
-9 c3 -6 0 -10 -7 -10 -15 0 -38 19 -38 32 0 10 36 -8 45 -22z m2915 21 c0 -6
-4 -13 -10 -16 -5 -3 -10 1 -10 9 0 9 5 16 10 16 6 0 10 -4 10 -9z m289 -14
c-29 -28 -30 -27 -22 1 3 14 13 22 26 22 19 0 19 -1 -4 -23z m-1976 -6 c3 -13
-1 -21 -14 -24 -11 -3 -19 -14 -19 -25 0 -12 -4 -24 -10 -27 -15 -9 -12 14 8
56 19 43 27 48 35 20z m2292 -1 c3 -5 1 -10 -4 -10 -6 0 -11 5 -11 10 0 6 2
10 4 10 3 0 8 -4 11 -10z m-1261 -32 c-9 -14 -23 2 -17 18 4 12 8 13 14 3 4
-7 5 -17 3 -21z m200 17 c-4 -8 -8 -15 -10 -15 -2 0 -4 7 -4 15 0 8 4 15 10
15 5 0 7 -7 4 -15z m161 6 c3 -5 1 -12 -5 -16 -5 -3 -10 1 -10 9 0 18 6 21 15
7z m1100 -12 c49 -16 65 -25 65 -39 0 -11 -6 -23 -14 -27 -29 -17 -70 -77 -75
-110 -6 -37 -23 -47 -29 -18 -2 9 4 39 13 67 12 38 13 54 5 62 -8 8 -17 4 -32
-16 -11 -16 -24 -28 -29 -28 -18 0 -9 27 17 51 36 34 48 57 27 55 -9 0 -18 5
-20 12 -6 16 -3 16 72 -9z m-3775 -5 c0 -8 -4 -12 -10 -9 -5 3 -10 10 -10 16
0 5 5 9 10 9 6 0 10 -7 10 -16z m2160 7 c0 -6 -4 -13 -10 -16 -5 -3 -10 1 -10
9 0 9 5 16 10 16 6 0 10 -4 10 -9z m-1329 -38 c-8 -15 -10 -15 -11 -2 0 17 10
32 18 25 2 -3 -1 -13 -7 -23z m1782 -20 c-3 -7 -9 -13 -14 -13 -11 0 -12 44
-2 54 9 9 22 -25 16 -41z m927 27 c0 -12 -28 -25 -36 -17 -9 9 6 27 22 27 8 0
14 -5 14 -10z m-2065 -20 c3 -5 1 -10 -4 -10 -6 0 -11 5 -11 10 0 6 2 10 4 10
3 0 8 -4 11 -10z m-1823 -34 c-12 -25 -19 -30 -25 -20 -10 17 9 54 28 54 12 0
12 -6 -3 -34z m96 17 c6 -19 -25 -16 -32 3 -4 11 -1 14 11 12 9 -2 18 -9 21
-15z m4142 13 c0 -3 -4 -8 -10 -11 -5 -3 -10 -1 -10 4 0 6 5 11 10 11 6 0 10
-2 10 -4z m-4349 -45 c6 10 11 11 19 3 13 -13 2 -66 -12 -62 -5 2 -9 7 -8 11
0 4 -6 15 -15 24 -13 13 -21 13 -41 4 -14 -6 -23 -7 -20 -2 4 5 0 12 -6 14 -7
3 -2 6 12 6 14 1 32 6 40 11 11 7 16 5 19 -7 2 -13 5 -13 12 -2z m3983 4 c-7
-17 -20 -20 -28 -6 -7 10 3 21 20 21 8 0 11 -6 8 -15z m386 -4 c0 -6 -4 -13
-10 -16 -5 -3 -10 1 -10 9 0 9 5 16 10 16 6 0 10 -4 10 -9z m-4502 -19 c-27
-18 -27 -18 -8 -32 21 -15 27 -50 10 -50 -6 0 -17 15 -25 33 -12 28 -11 34 2
50 9 9 23 17 32 17 11 0 7 -6 -11 -18z m4577 8 c3 -5 1 -10 -4 -10 -6 0 -11 5
-11 10 0 6 2 10 4 10 3 0 8 -4 11 -10z m-3760 -28 c-7 -8 -35 7 -35 18 0 6 7
6 20 -2 10 -7 17 -14 15 -16z m3275 -2 c0 -5 -4 -10 -10 -10 -5 0 -10 5 -10
10 0 6 5 10 10 10 6 0 10 -4 10 -10z m468 -2 c-9 -7 -24 -40 -33 -72 -10 -37
-28 -70 -47 -89 -16 -17 -37 -41 -45 -54 -9 -13 -18 -21 -21 -18 -3 3 -15 -1
-28 -10 -20 -13 -21 -13 -17 5 3 11 10 20 16 20 18 0 97 89 97 110 0 11 8 24
19 29 13 7 17 18 14 35 -8 38 3 56 34 56 23 0 25 -2 11 -12z m-288 -12 c0 -3
-4 -8 -10 -11 -5 -3 -10 -1 -10 4 0 6 5 11 10 11 6 0 10 -2 10 -4z m130 -4 c0
-13 -12 -22 -22 -16 -10 6 -1 24 13 24 5 0 9 -4 9 -8z m-2616 -23 c-3 -5 -10
-7 -15 -3 -5 3 -7 10 -3 15 3 5 10 7 15 3 5 -3 7 -10 3 -15z m380 5 c4 -9 4
-19 2 -21 -8 -8 -26 8 -26 23 0 19 16 18 24 -2z m-2250 -9 c-4 -8 -12 -15 -20
-15 -17 0 -18 17 -1 23 22 9 27 7 21 -8z m4775 -26 c-12 -23 -59 -26 -59 -5 0
23 41 48 57 35 9 -8 10 -16 2 -30z m-759 5 c0 -14 -4 -23 -10 -19 -5 3 -10 15
-10 26 0 10 5 19 10 19 6 0 10 -12 10 -26z m-2597 1 c-3 -9 -8 -14 -10 -11 -3
3 -2 9 2 15 9 16 15 13 8 -4z m-1393 -20 c0 -9 -6 -12 -15 -9 -8 4 -15 10 -15
15 0 5 7 9 15 9 8 0 15 -7 15 -15z m1144 0 c3 -8 1 -15 -3 -15 -5 0 -11 7 -15
15 -3 8 -1 15 3 15 5 0 11 -7 15 -15z m166 7 c0 -13 -12 -22 -22 -16 -10 6 -1
24 13 24 5 0 9 -4 9 -8z m2980 4 c0 -3 -4 -8 -10 -11 -5 -3 -10 -1 -10 4 0 6
5 11 10 11 6 0 10 -2 10 -4z m554 -32 c3 -7 -4 -16 -15 -19 -25 -8 -26 -7 -34
28 -7 27 -6 27 18 16 14 -6 28 -18 31 -25z m-1899 16 c3 -6 -1 -7 -9 -4 -18 7
-21 14 -7 14 6 0 13 -4 16 -10z m1415 5 c0 -2 -9 -9 -20 -15 -16 -9 -20 -8
-20 5 0 8 9 15 20 15 11 0 20 -2 20 -5z m294 -10 c6 -18 -13 -65 -27 -65 -5 0
-6 8 -2 18 4 9 7 27 6 40 -1 25 14 30 23 7z m-4694 -65 c0 -5 -8 -10 -19 -10
-13 0 -20 10 -25 31 -3 17 -10 28 -16 24 -11 -7 -14 8 -3 18 7 8 63 -48 63
-63z m4290 50 c0 -5 -7 -10 -15 -10 -8 0 -15 5 -15 10 0 6 7 10 15 10 8 0 15
-4 15 -10z m651 -32 c-12 -4 -24 -14 -27 -22 -3 -8 -12 -12 -19 -10 -11 4 -10
11 3 34 14 24 19 26 40 17 23 -11 23 -11 3 -19z m-2521 -8 c12 -23 12 -24 -3
-11 -10 7 -17 20 -17 29 0 18 3 16 20 -18z m-922 -21 c22 -27 22 -29 5 -29
-11 0 -23 12 -30 30 -14 38 -5 37 25 -1z m480 2 c3 -8 -1 -12 -9 -9 -7 2 -15
10 -17 17 -3 8 1 12 9 9 7 -2 15 -10 17 -17z m-1713 -1 c3 -5 1 -10 -4 -10 -6
0 -11 5 -11 10 0 6 2 10 4 10 3 0 8 -4 11 -10z m4121 -5 c-7 -20 4 -19 19 2 7
9 15 12 18 7 3 -5 -8 -25 -24 -44 -27 -32 -30 -33 -40 -17 -9 15 -13 16 -26 5
-15 -12 -15 -11 -2 12 23 41 69 70 55 35z m594 11 c0 -3 -4 -8 -10 -11 -5 -3
-10 -1 -10 4 0 6 5 11 10 11 6 0 10 -2 10 -4z m-2830 -16 c0 -5 -2 -10 -4 -10
-3 0 -8 5 -11 10 -3 6 -1 10 4 10 6 0 11 -4 11 -10z m2620 -10 c0 -5 -2 -10
-4 -10 -3 0 -8 5 -11 10 -3 6 -1 10 4 10 6 0 11 -4 11 -10z m280 -5 c11 -13
10 -14 -4 -9 -9 3 -16 10 -16 15 0 13 6 11 20 -6z m-5188 -30 c10 -19 14 -35
10 -35 -17 1 -47 32 -48 50 -2 31 19 23 38 -15z m4032 0 c-16 -25 -42 -36 -28
-12 14 23 27 37 35 37 5 0 2 -11 -7 -25z m-4128 -10 c-29 -26 -46 -32 -46 -14
0 5 5 7 10 4 6 -3 10 -1 10 4 0 6 -6 11 -12 12 -7 1 -2 5 12 9 46 15 53 10 26
-15z m5241 4 c2 -8 -9 -27 -23 -44 -18 -21 -24 -24 -19 -10 4 11 7 27 7 35 -1
27 8 42 21 38 6 -3 13 -11 14 -19z m91 -6 c-2 -8 -18 -23 -36 -35 l-32 -20 10
28 c6 16 16 34 21 41 13 15 41 5 37 -14z m-5088 1 c0 -9 -5 -14 -12 -12 -18 6
-21 28 -4 28 9 0 16 -7 16 -16z m4236 -12 c-18 -16 -18 -16 -6 6 6 13 14 21
18 18 3 -4 -2 -14 -12 -24z m-1676 3 c20 -24 6 -28 -15 -5 -10 11 -13 20 -8
20 6 0 16 -7 23 -15z m-950 -11 c0 -2 -7 -4 -15 -4 -8 0 -15 4 -15 10 0 5 7 7
15 4 8 -4 15 -8 15 -10z m1308 -12 c3 -9 -2 -13 -14 -10 -9 1 -19 9 -22 16 -3
9 2 13 14 10 9 -1 19 -9 22 -16z m1612 -23 c0 -5 -7 -9 -15 -9 -8 0 -15 7 -15
15 0 9 6 12 15 9 8 -4 15 -10 15 -15z m659 -6 c9 -19 11 -25 11 -44 0 -7 9 -9
21 -6 11 3 35 -3 55 -15 28 -16 33 -24 28 -44 -7 -27 22 -47 36 -24 6 9 13 8
34 -5 14 -10 26 -19 26 -22 0 -2 -13 -18 -30 -35 -20 -19 -30 -25 -30 -15 0 9
6 17 13 20 9 3 7 9 -5 23 -16 16 -19 16 -30 3 -17 -19 -58 -36 -79 -32 -13 3
-16 16 -15 58 0 30 -3 57 -7 61 -10 11 -37 -16 -31 -31 6 -15 -12 -55 -24 -55
-13 0 -6 103 8 133 12 24 12 30 -1 38 -9 6 -10 9 -2 9 7 0 17 -8 22 -17z
m-629 -13 c0 -18 -33 -79 -47 -84 -22 -9 -15 41 10 68 24 26 37 32 37 16z
m447 -15 c-4 -8 -11 -15 -17 -15 -7 0 -7 6 0 21 13 23 26 19 17 -6z m97 10
c-22 -16 -44 -19 -44 -6 0 11 18 19 44 20 20 1 20 1 0 -14z m-294 -24 c0 -12
-20 -25 -27 -18 -7 7 6 27 18 27 5 0 9 -4 9 -9z m-160 -62 c-45 -38 -62 -38
-21 0 17 16 31 35 31 42 0 11 2 11 13 0 10 -10 5 -18 -23 -42z m455 32 c-3 -6
-11 -11 -17 -11 -6 0 -6 6 2 15 14 17 26 13 15 -4z m-365 -8 c0 -5 -5 -15 -10
-23 -8 -12 -10 -11 -10 8 0 12 5 22 10 22 6 0 10 -3 10 -7z m-5120 -19 c0 -8
-4 -12 -10 -9 -5 3 -10 10 -10 16 0 5 5 9 10 9 6 0 10 -7 10 -16z m5338 -26
c-12 -18 -24 -26 -26 -20 -5 15 28 63 39 56 5 -3 -1 -19 -13 -36z m-103 12
c-16 -11 -37 -20 -45 -20 -8 0 -2 9 15 20 17 11 37 20 45 20 8 0 2 -9 -15 -20z
m-5181 -6 c4 -10 1 -14 -6 -12 -15 5 -23 28 -10 28 5 0 13 -7 16 -16z m-99 -4
c3 -5 -1 -10 -9 -10 -9 0 -16 5 -16 10 0 6 4 10 9 10 6 0 13 -4 16 -10z m3305
-10 c0 -5 -4 -10 -10 -10 -5 0 -10 5 -10 10 0 6 5 10 10 10 6 0 10 -4 10 -10z
m1640 -20 c-19 -13 -30 -13 -30 0 0 6 10 10 23 10 18 0 19 -2 7 -10z m-4890
-16 c0 -9 -5 -14 -12 -12 -18 6 -21 28 -4 28 9 0 16 -7 16 -16z m1260 -4 c15
-13 18 -20 9 -20 -8 0 -20 9 -27 20 -7 11 -11 20 -9 20 2 0 14 -9 27 -20z
m3905 10 c-3 -5 -14 -10 -23 -10 -15 0 -15 2 -2 10 20 13 33 13 25 0z m625
-44 c0 -13 -7 -29 -15 -36 -9 -8 -15 -9 -15 -2 0 6 5 14 10 17 6 4 8 15 5 26
-4 11 -2 19 4 19 6 0 11 -11 11 -24z m60 -30 c-12 -15 -50 -23 -50 -10 0 3 8
16 18 29 14 20 19 22 31 10 12 -12 12 -17 1 -29z m-5970 12 c0 -19 -18 -43
-25 -36 -4 3 -2 16 5 27 12 24 20 27 20 9z m5620 -4 c0 -13 -47 -73 -53 -67
-13 12 -7 32 15 53 21 19 38 26 38 14z m-5589 -21 c13 -16 12 -17 -3 -4 -10 7
-18 15 -18 17 0 8 8 3 21 -13z m5728 -26 c-36 -33 -139 -100 -139 -91 0 3 12
25 26 49 14 24 25 47 25 50 -3 19 1 25 15 25 9 0 14 -6 11 -12 -7 -21 -17 -64
-11 -50 3 6 10 12 16 12 6 0 26 14 45 31 46 40 57 27 12 -14z m265 2 c-3 -5
-10 -7 -15 -3 -5 3 -7 10 -3 15 3 5 10 7 15 3 5 -3 7 -10 3 -15z m-180 -14
c-9 -14 -27 -28 -40 -31 -13 -3 -35 -20 -49 -36 -14 -17 -29 -28 -32 -24 -11
10 32 61 54 64 11 2 31 14 44 28 29 31 44 31 23 -1z m-344 -15 c0 -5 -4 -10
-10 -10 -5 0 -10 5 -10 10 0 6 5 10 10 10 6 0 10 -4 10 -10z m410 -15 c0 -8
-7 -15 -15 -15 -8 0 -15 7 -15 15 0 8 7 15 15 15 8 0 15 -7 15 -15z m114 -9
c-6 -16 -24 -23 -24 -8 0 10 22 33 27 28 2 -2 1 -11 -3 -20z m102 -65 c-4 -6
-16 -11 -27 -11 -11 0 -22 -7 -25 -15 -7 -16 -54 -21 -54 -6 0 5 14 14 30 20
31 10 41 31 15 31 -18 0 -20 21 -3 38 10 10 19 6 41 -17 16 -16 26 -34 23 -40z
m-726 49 c0 -5 -4 -10 -10 -10 -5 0 -10 5 -10 10 0 6 5 10 10 10 6 0 10 -4 10
-10z m580 -14 c0 -21 -47 -66 -69 -66 -16 0 -12 7 21 40 46 44 48 46 48 26z
m-6180 -29 c0 -5 -4 -5 -10 -2 -5 3 -10 14 -10 23 0 15 2 15 10 2 5 -8 10 -19
10 -23z m3084 -6 c-3 -3 -15 6 -27 18 l-22 24 27 -19 c14 -10 24 -21 22 -23z
m-2994 5 c0 -22 -13 -26 -33 -11 -14 10 -15 14 -5 18 24 10 38 7 38 -7z m55 4
c3 -5 -1 -10 -9 -10 -9 0 -16 5 -16 10 0 6 4 10 9 10 6 0 13 -4 16 -10z m5395
-4 c0 -3 -4 -8 -10 -11 -5 -3 -10 -1 -10 4 0 6 5 11 10 11 6 0 10 -2 10 -4z
m520 -6 c0 -5 -7 -10 -16 -10 -8 0 -12 5 -9 10 3 6 10 10 16 10 5 0 9 -4 9
-10z m-140 -4 c0 -11 -33 -36 -46 -36 -20 0 -7 19 20 30 27 11 26 11 26 6z
m450 -22 c0 -8 4 -14 10 -14 5 0 17 -14 26 -31 8 -17 11 -28 5 -25 -5 4 -17
-7 -26 -24 -8 -16 -21 -30 -28 -30 -15 0 -67 -47 -67 -61 0 -6 9 -13 21 -16
16 -4 17 -8 7 -14 -19 -13 -28 -11 -28 6 0 8 -4 15 -10 15 -5 0 -10 5 -10 11
0 14 39 64 51 65 5 1 14 2 19 3 6 0 10 8 10 17 0 9 8 23 17 30 24 17 8 32 -17
16 -11 -7 -29 -12 -41 -12 -15 0 -19 -4 -14 -19 8 -26 -10 -35 -29 -15 -20 20
-20 20 4 44 12 12 22 15 26 9 10 -16 64 40 57 59 -4 10 -2 13 5 8 7 -4 12 -14
12 -22z m-6200 -35 c0 -11 -4 -19 -9 -19 -16 0 -33 30 -27 46 5 13 9 14 21 4
8 -7 15 -21 15 -31z m5337 19 c-3 -8 -6 -5 -6 6 -1 11 2 17 5 13 3 -3 4 -12 1
-19z m465 -19 c-18 -16 -32 -25 -32 -19 0 13 53 60 60 54 2 -3 -10 -18 -28
-35z m-252 22 c0 -6 -4 -13 -10 -16 -5 -3 -10 1 -10 9 0 9 5 16 10 16 6 0 10
-4 10 -9z m340 -18 c0 -3 -7 -14 -16 -24 -9 -10 -14 -26 -10 -35 5 -14 11 -13
41 10 39 30 42 28 19 -15 -13 -26 -19 -29 -44 -24 -19 4 -37 1 -54 -10 -28
-19 -36 -6 -10 16 8 7 24 30 35 51 17 33 39 51 39 31z m-1179 -66 c-13 -13
-26 -3 -16 12 3 6 11 8 17 5 6 -4 6 -10 -1 -17z m-1985 -24 c-7 -7 -26 7 -26
19 0 6 6 6 15 -2 9 -7 13 -15 11 -17z m2300 0 c-10 -10 -19 5 -10 18 6 11 8
11 12 0 2 -7 1 -15 -2 -18z m575 -6 c-8 -8 -11 -7 -11 4 0 9 3 19 7 23 4 4 9
2 11 -4 3 -7 -1 -17 -7 -23z m-3786 3 c10 -11 14 -20 9 -20 -5 0 -15 9 -22 20
-7 11 -11 20 -9 20 2 0 12 -9 22 -20z m4492 -14 c-8 -8 -17 -12 -21 -9 -8 9
-47 -28 -57 -54 -5 -13 -15 -23 -24 -23 -8 0 -15 -3 -15 -8 0 -4 -25 -34 -55
-67 -37 -41 -55 -54 -55 -42 0 10 25 41 55 69 41 39 52 55 44 64 -15 18 -4 31
30 39 16 3 35 13 42 21 6 8 17 14 24 14 7 0 19 7 26 16 8 10 15 12 17 5 2 -6
-3 -17 -11 -25z m-232 5 c-3 -6 -11 -11 -17 -11 -6 0 -6 6 2 15 14 17 26 13
15 -4z m-4535 -6 c11 -13 8 -15 -15 -15 -23 0 -26 2 -15 15 7 8 14 15 15 15 1
0 8 -7 15 -15z m4144 -26 c-9 -10 -24 -19 -32 -19 -11 0 -7 9 13 30 31 33 49
22 19 -11z m-6147 4 c-9 -9 -20 -13 -24 -9 -4 4 -1 11 7 16 25 16 35 11 17 -7z
m6208 -8 c-31 -25 -45 -31 -45 -17 0 8 50 40 65 41 6 1 -3 -10 -20 -24z m195
17 c0 -5 -13 -21 -30 -37 -35 -33 -39 -26 -9 16 19 28 39 38 39 21z m-80 -22
c0 -5 -7 -10 -15 -10 -8 0 -15 5 -15 10 0 6 7 10 15 10 8 0 15 -4 15 -10z
m-304 -27 c-10 -10 -19 5 -10 18 6 11 8 11 12 0 2 -7 1 -15 -2 -18z m794 23
c0 -2 3 -11 6 -20 4 -12 0 -16 -15 -16 -12 0 -30 -5 -41 -12 -22 -14 -35 -6
-26 18 4 10 13 14 26 11 13 -3 20 0 20 9 0 8 7 14 15 14 8 0 15 -2 15 -4z
m-6926 -31 c-6 -16 -24 -21 -24 -7 0 11 11 22 21 22 5 0 6 -7 3 -15z m6366 11
c0 -3 -4 -8 -10 -11 -5 -3 -10 -1 -10 4 0 6 5 11 10 11 6 0 10 -2 10 -4z m290
-17 c0 -25 -17 -59 -31 -59 -8 0 -6 28 7 68 6 20 24 14 24 -9z m349 7 c9 -10
8 -16 -4 -26 -13 -11 -15 -9 -13 14 3 30 2 30 17 12z m-399 -4 c0 -5 -11 -15
-25 -22 -14 -7 -25 -17 -25 -22 0 -4 -8 -8 -17 -8 -12 0 -7 8 17 30 36 30 50
36 50 22z m-3280 -26 c0 -8 -5 -18 -11 -22 -14 -8 -33 11 -25 25 10 16 36 13
36 -3z m-3300 -6 c0 -5 -4 -10 -10 -10 -5 0 -10 5 -10 10 0 6 5 10 10 10 6 0
10 -4 10 -10z m7120 -100 c0 -4 -8 -10 -17 -13 -10 -3 -34 -11 -53 -19 -21 -9
-47 -12 -65 -8 l-30 7 27 11 c17 7 28 21 33 41 10 45 -2 55 -36 31 -16 -12
-33 -19 -39 -15 -14 9 11 45 33 45 10 0 20 7 23 15 5 12 20 3 65 -36 32 -28
59 -55 59 -59z m-212 71 c-14 -22 -67 -36 -82 -21 -7 7 -4 10 10 10 10 0 28 7
38 15 30 22 49 20 34 -4z m-4121 -37 c-3 -3 -12 -4 -19 -1 -8 3 -5 6 6 6 11 1
17 -2 13 -5z m1469 -5 c117 -13 158 -27 244 -84 105 -70 201 -179 258 -293
l47 -95 0 -176 c0 -203 -10 -240 -89 -359 -82 -124 -202 -221 -341 -277 -60
-24 -88 -29 -195 -33 -159 -5 -223 6 -337 64 -156 78 -278 212 -334 370 -39
109 -36 365 6 485 23 65 104 176 174 240 42 39 98 76 156 105 126 62 222 74
411 53z m2679 -45 c-23 -17 -34 -2 -14 22 9 11 15 12 23 4 8 -8 6 -15 -9 -26z
m-485 4 c0 -14 -40 -58 -52 -58 -4 0 2 16 14 35 23 35 38 44 38 23z m70 -5 c0
-13 -33 -43 -48 -43 -12 0 -10 6 8 25 23 24 40 32 40 18z m-3170 -23 c13 -11
19 -20 14 -20 -12 1 -44 25 -44 34 0 10 5 7 30 -14z m3810 1 c15 -29 2 -50
-28 -49 -15 1 -39 -2 -54 -6 -16 -5 -28 -4 -28 0 0 7 88 74 97 74 1 0 7 -9 13
-19z m-1422 -13 c-8 -12 -20 -24 -27 -26 -9 -3 -7 5 4 22 10 14 22 26 27 26 6
0 4 -10 -4 -22z m967 2 c-3 -5 -11 -10 -16 -10 -6 0 -7 5 -4 10 3 6 11 10 16
10 6 0 7 -4 4 -10z m215 -10 c0 -5 -5 -10 -11 -10 -5 0 -7 5 -4 10 3 6 8 10
11 10 2 0 4 -4 4 -10z m-7095 -60 c3 -5 -1 -10 -10 -10 -9 0 -13 5 -10 10 3 6
8 10 10 10 2 0 7 -4 10 -10z m7395 -11 c7 -11 9 -23 6 -27 -3 -3 -6 0 -6 7 0
7 -4 10 -8 7 -13 -8 -35 11 -28 23 11 17 24 13 36 -10z m-510 1 c0 -5 -5 -10
-11 -10 -5 0 -7 5 -4 10 3 6 8 10 11 10 2 0 4 -4 4 -10z m-116 -32 c-16 -28
-27 -38 -36 -32 -5 3 -1 14 9 24 21 22 38 26 27 8z m421 -21 c-6 -24 -32 -44
-43 -33 -5 5 41 65 46 61 2 -2 0 -14 -3 -28z m235 -16 c-1 -17 -23 -51 -34
-51 -8 0 -8 65 0 73 11 10 34 -5 34 -22z m-70 -6 c0 -16 -80 -99 -88 -91 -6 6
16 40 49 79 27 30 39 34 39 12z m-150 -44 c-14 -26 -13 -28 11 -34 20 -5 20
-7 6 -21 -9 -9 -20 -16 -25 -16 -6 0 -12 -7 -16 -15 -3 -9 -18 -15 -36 -15
-23 0 -30 4 -30 19 0 27 17 35 28 15 6 -11 16 -15 26 -11 14 6 14 10 4 26 -10
17 -9 24 12 46 28 30 34 32 20 6z m-7175 -21 c3 -11 11 -20 16 -20 5 0 9 -5 9
-10 0 -16 -38 7 -50 30 -8 16 -8 20 4 20 8 0 18 -9 21 -20z m7495 -25 c0 -17
-7 -25 -22 -27 -15 -2 -25 -12 -28 -28 -10 -48 -26 -62 -76 -70 -57 -9 -80 3
-50 26 22 16 50 19 41 5 -7 -13 12 -24 26 -15 7 4 7 10 1 16 -6 6 -1 18 14 33
25 25 23 61 -2 51 -26 -10 -14 23 14 37 38 19 82 4 82 -28z m-7554 1 c11 -8
15 -18 10 -23 -5 -4 -11 -2 -13 5 -3 6 -13 12 -23 12 -10 0 -22 5 -25 10 -9
15 28 12 51 -4z m-99 -12 c-3 -3 -12 -4 -19 -1 -8 3 -5 6 6 6 11 1 17 -2 13
-5z m7143 -14 c0 -5 -5 -10 -11 -10 -5 0 -7 5 -4 10 3 6 8 10 11 10 2 0 4 -4
4 -10z m565 -31 c-2 -11 2 -19 9 -19 7 0 21 -18 31 -40 10 -22 24 -45 32 -51
19 -16 16 -39 -5 -39 -10 0 -24 -6 -31 -12 -10 -11 -15 -9 -27 7 -15 20 -15
20 -30 1 -21 -29 -39 -8 -23 28 11 24 13 25 30 10 20 -18 49 -12 49 10 0 15
-53 76 -66 76 -4 0 -22 -16 -40 -35 -17 -19 -37 -35 -43 -35 -18 0 -13 28 7
34 9 3 26 22 37 43 29 52 44 66 60 53 8 -6 12 -20 10 -31z m-254 -2 c-6 -6
-11 -23 -11 -37 0 -26 -16 -50 -33 -50 -5 0 -5 5 1 13 5 6 8 22 6 33 -4 25 37
85 44 65 2 -7 -1 -18 -7 -24z m-766 -32 c-16 -13 -31 -22 -34 -20 -5 6 41 44
54 44 6 0 -3 -11 -20 -24z m-6744 -18 c-8 -8 -11 -7 -11 4 0 20 13 34 18 19 3
-7 -1 -17 -7 -23z m54 13 c3 -5 1 -10 -4 -10 -6 0 -11 5 -11 10 0 6 2 10 4 10
3 0 8 -4 11 -10z m6925 -10 c0 -6 -14 -10 -31 -10 -16 0 -28 3 -25 8 7 11 56
13 56 2z m380 -17 c0 -5 -5 -15 -10 -23 -8 -12 -10 -11 -10 8 0 12 5 22 10 22
6 0 10 -3 10 -7z m-7325 -13 c3 -5 -1 -10 -9 -10 -9 0 -16 5 -16 10 0 6 4 10
9 10 6 0 13 -4 16 -10z m-139 -68 c-10 -10 -39 25 -31 38 5 8 12 5 22 -10 8
-12 12 -24 9 -28z m7194 28 c0 -5 -5 -10 -11 -10 -5 0 -7 5 -4 10 3 6 8 10 11
10 2 0 4 -4 4 -10z m-7089 -26 c12 -14 11 -16 -5 -13 -11 2 -21 10 -24 17 -5
17 13 15 29 -4z m7520 6 c10 0 19 -3 19 -7 0 -5 -29 -8 -65 -9 -36 0 -65 1
-65 2 0 7 66 22 78 18 8 -2 22 -4 33 -4z m-4691 -20 c0 -5 -4 -10 -10 -10 -5
0 -10 5 -10 10 0 6 5 10 10 10 6 0 10 -4 10 -10z m50 0 c0 -5 -4 -10 -10 -10
-5 0 -10 5 -10 10 0 6 5 10 10 10 6 0 10 -4 10 -10z m4785 0 c3 -5 -1 -10 -10
-10 -9 0 -13 5 -10 10 3 6 8 10 10 10 2 0 7 -4 10 -10z m-25 -29 c0 -5 -7 -17
-16 -25 -30 -31 -46 -16 -17 16 17 19 33 24 33 9z m-3990 -15 c0 -3 -4 -8 -10
-11 -5 -3 -10 -1 -10 4 0 6 5 11 10 11 6 0 10 -2 10 -4z m3760 -6 c0 -5 -4
-10 -10 -10 -5 0 -10 5 -10 10 0 6 5 10 10 10 6 0 10 -4 10 -10z m437 -7 c5
-14 -59 -46 -66 -34 -4 5 -25 1 -49 -10 -41 -19 -62 -18 -62 2 0 5 11 9 24 9
13 0 36 10 51 22 20 15 30 18 33 10 5 -17 32 -15 39 3 6 17 24 16 30 -2z m48
-4 c4 -12 2 -26 -4 -32 -17 -17 -13 -44 6 -51 11 -5 22 0 31 11 13 17 14 17
28 -1 21 -30 17 -38 -18 -34 -20 2 -33 -2 -36 -11 -3 -9 1 -11 14 -7 23 7 70
-27 60 -43 -4 -6 -12 -9 -17 -5 -5 3 -24 -4 -43 -15 -39 -25 -58 -27 -50 -6 4
8 12 15 20 15 7 0 18 9 24 20 9 17 8 20 -13 20 -13 0 -32 6 -43 14 -15 12 -17
17 -6 27 6 7 12 17 12 23 0 5 -9 0 -20 -12 -27 -28 -42 -28 -38 1 2 15 11 23
30 25 37 4 55 28 40 53 -15 24 -15 29 2 29 8 0 18 -9 21 -21z m-2415 -19 c0
-5 -4 -10 -10 -10 -5 0 -10 5 -10 10 0 6 5 10 10 10 6 0 10 -4 10 -10z m-5715
-20 c3 -5 1 -10 -4 -10 -6 0 -11 5 -11 10 0 6 2 10 4 10 3 0 8 -4 11 -10z
m6495 6 c0 -3 -4 -8 -10 -11 -5 -3 -10 -1 -10 4 0 6 5 11 10 11 6 0 10 -2 10
-4z m875 -6 c-3 -5 -13 -10 -21 -10 -8 0 -12 5 -9 10 3 6 13 10 21 10 8 0 12
-4 9 -10z m423 -6 c-8 -9 -26 -14 -39 -12 -22 4 -20 5 11 15 47 15 46 15 28
-3z m-137 -87 c-14 -15 -21 -17 -21 -8 0 21 33 56 38 41 3 -7 -5 -22 -17 -33z
m309 18 c0 -17 -9 -29 -29 -39 -28 -15 -29 -15 -24 7 6 24 31 57 45 57 4 0 8
-11 8 -25z m-8024 -12 c-10 -10 -19 5 -10 18 6 11 8 11 12 0 2 -7 1 -15 -2
-18z m8090 -23 c1 -23 -3 -30 -17 -30 -27 0 -33 19 -13 41 23 26 29 24 30 -11z
m-6311 -18 c-3 -3 -11 0 -18 7 -9 10 -8 11 6 5 10 -3 15 -9 12 -12z m1840 8
c3 -5 -1 -10 -9 -10 -8 0 -18 5 -21 10 -3 6 1 10 9 10 8 0 18 -4 21 -10z
m4224 7 c-2 -1 -12 -9 -22 -16 -15 -12 -17 -12 -11 3 3 9 13 16 22 16 8 0 13
-1 11 -3z m47 -28 c-17 -40 -47 -60 -39 -26 6 24 31 57 44 57 4 0 2 -14 -5
-31z m-7918 -29 c22 -30 22 -30 2 -30 -13 0 -20 7 -20 20 0 11 -4 20 -10 20
-5 0 -10 5 -10 10 0 19 16 10 38 -20z m3385 23 c-7 -2 -19 -2 -25 0 -7 3 -2 5
12 5 14 0 19 -2 13 -5z m4692 -54 c2 -26 -49 -69 -82 -69 -29 0 -26 7 9 24 13
6 32 26 43 43 22 33 28 34 30 2z m-85 12 c0 -5 -8 -17 -17 -27 -20 -20 -32 -1
-13 21 14 17 30 20 30 6z m367 -8 c8 -19 -31 -55 -52 -47 -7 3 -18 -4 -25 -15
-6 -12 -17 -21 -25 -21 -19 0 -20 26 -2 37 8 4 16 16 20 26 3 9 13 17 22 17 8
0 15 5 15 10 0 17 40 11 47 -7z m-8427 -33 c0 -5 -4 -10 -10 -10 -5 0 -10 5
-10 10 0 6 5 10 10 10 6 0 10 -4 10 -10z m170 0 c0 -5 -4 -10 -9 -10 -6 0 -13
5 -16 10 -3 6 1 10 9 10 9 0 16 -4 16 -10z m7496 -15 c-11 -8 -25 -15 -30 -15
-6 0 -2 7 8 15 11 8 25 15 30 15 6 0 2 -7 -8 -15z m774 -36 c0 -11 -4 -18 -10
-14 -5 3 -7 12 -3 20 7 21 13 19 13 -6z m-583 -42 c-15 -5 -27 -13 -27 -18 0
-5 -10 -9 -22 -9 -19 0 -16 4 17 24 22 13 44 22 49 18 6 -3 -2 -10 -17 -15z
m-5244 6 c-7 -2 -19 -2 -25 0 -7 3 -2 5 12 5 14 0 19 -2 13 -5z m4794 1 c-3
-3 -12 -4 -19 -1 -8 3 -5 6 6 6 11 1 17 -2 13 -5z m753 0 c0 -3 -18 -27 -41
-54 -26 -31 -46 -47 -56 -43 -11 4 -2 18 33 54 44 45 64 58 64 43z m247 -11
c4 -10 -2 -23 -17 -35 -28 -23 -45 -10 -36 26 7 30 43 36 53 9z m-107 -16 c0
-18 -38 -52 -48 -43 -4 4 1 13 11 20 9 7 17 18 17 25 0 6 5 11 10 11 6 0 10
-6 10 -13z m216 -22 c16 -24 16 -26 -7 -46 -22 -19 -24 -19 -36 -3 -7 10 -13
22 -13 27 0 6 -9 2 -20 -8 -11 -10 -23 -15 -27 -11 -11 11 14 29 40 29 16 0
27 6 30 18 7 25 13 24 33 -6z m-8656 -26 c0 -10 -7 -19 -15 -19 -16 0 -19 9
-9 34 8 20 24 11 24 -15z m8101 -5 c-4 -16 -15 -30 -24 -32 -14 -3 -15 0 -4
20 30 57 42 62 28 12z m430 -46 c-8 -22 -61 -40 -61 -21 1 21 21 35 62 42 4 0
4 -9 -1 -21z m-4507 -23 c-10 -8 -23 -14 -29 -14 -5 0 -1 6 9 14 11 8 24 15
30 15 5 0 1 -7 -10 -15z m4726 -66 c0 -5 -9 -13 -20 -19 -17 -9 -20 -8 -20 9
0 11 -9 25 -20 31 -22 12 -27 46 -8 52 12 4 68 -56 68 -73z m-124 45 c-3 -9
-6 -18 -6 -20 0 -2 -7 -4 -15 -4 -18 0 -20 26 -2 33 23 10 29 7 23 -9z m-256
2 c0 -2 -7 -6 -15 -10 -8 -3 -15 -1 -15 4 0 6 7 10 15 10 8 0 15 -2 15 -4z
m-118 -28 c-7 -7 -12 -8 -12 -2 0 14 12 26 19 19 2 -3 -1 -11 -7 -17z m312 13
c3 -4 -3 -16 -13 -25 -22 -20 -40 -4 -21 19 14 17 26 19 34 6z m-72 -33 c-6
-6 -12 -20 -12 -30 0 -22 -3 -22 -40 -3 -48 25 -41 39 22 43 34 2 40 0 30 -10z
m133 -18 c-3 -5 -11 -10 -16 -10 -6 0 -7 5 -4 10 3 6 11 10 16 10 6 0 7 -4 4
-10z m-8635 -35 c11 -13 8 -15 -14 -15 -16 0 -26 5 -26 15 0 8 6 15 14 15 7 0
19 -7 26 -15z m8773 -20 c-10 -14 -26 -27 -35 -30 -23 -8 -23 -18 2 -40 l21
-19 -27 -23 c-15 -13 -34 -23 -43 -23 -13 1 -12 3 4 16 16 12 17 18 8 33 -9
14 -4 26 29 69 21 29 43 50 49 47 5 -4 1 -17 -8 -30z m-73 10 c0 -8 -7 -15
-15 -15 -8 0 -15 7 -15 15 0 8 7 15 15 15 8 0 15 -7 15 -15z m-4390 -10 c0 -8
-7 -15 -15 -15 -26 0 -18 20 13 29 1 1 2 -6 2 -14z m1700 -10 c-7 -8 -17 -15
-23 -15 -5 0 -2 9 8 20 21 23 35 19 15 -5z m2798 -27 c-5 -15 -23 -11 -26 6
-2 11 2 14 13 10 9 -4 14 -11 13 -16z m-8888 -38 c0 -13 -7 -13 -31 1 -11 5
-17 14 -14 20 7 11 45 -7 45 -21z m8735 20 c-3 -5 -12 -10 -18 -10 -7 0 -6 4
3 10 19 12 23 12 15 0z m-53 -52 c-6 -6 -15 -8 -19 -4 -4 4 -1 11 7 16 19 12
27 3 12 -12z m237 12 c14 0 44 -74 31 -78 -17 -6 -50 -44 -50 -59 0 -7 -7 -13
-15 -13 -13 0 -15 7 -9 38 7 41 20 63 36 59 6 -1 13 4 15 11 3 8 -1 10 -11 6
-26 -10 -45 3 -39 26 4 13 11 19 20 16 8 -3 18 -6 22 -6z m-3061 -77 c70 -182
148 -509 196 -823 56 -363 83 -964 52 -1175 -19 -135 -15 -170 53 -441 51
-202 101 -365 129 -419 49 -96 186 -282 467 -635 95 -118 183 -233 198 -255
88 -138 31 -338 -118 -411 -67 -32 -164 -42 -233 -24 -37 11 -62 29 -117 84
-120 122 -425 498 -603 744 -77 108 -157 262 -212 412 -93 249 -128 288 -207
231 -57 -42 -237 -232 -333 -352 -100 -126 -170 -253 -374 -678 -105 -219
-156 -316 -182 -342 -102 -105 -276 -114 -399 -21 -98 74 -123 189 -77 354 44
158 233 565 358 774 103 171 197 293 419 539 288 321 285 316 266 446 -6 41
-20 198 -31 349 -19 257 -32 393 -46 482 -7 47 -47 88 -86 88 -37 0 -52 -8
-163 -88 -136 -97 -296 -173 -439 -208 -34 -8 -121 -18 -194 -23 -95 -7 -140
-14 -158 -26 -14 -9 -49 -53 -79 -98 -59 -91 -725 -1308 -831 -1518 -82 -164
-85 -193 -31 -272 l37 -53 -1 -220 c-1 -120 -4 -229 -7 -242 -6 -20 -10 -17
-30 28 -53 115 -189 220 -307 236 -85 12 -108 11 -164 -8 -156 -52 -267 -172
-307 -329 -27 -108 -28 -109 -144 -109 -135 0 -143 4 -165 82 -31 111 -72 189
-132 250 -100 101 -234 143 -356 111 -179 -46 -285 -156 -333 -343 -20 -77
-36 -87 -63 -38 -14 24 -13 31 21 100 50 101 244 391 307 460 35 38 65 61 89
68 21 6 233 12 497 15 253 3 512 8 575 11 l115 6 33 35 c59 63 283 458 712
1253 303 561 340 644 340 758 0 156 96 244 247 228 112 -13 261 19 400 85 141
67 385 288 445 404 27 53 25 103 -12 205 -36 103 -37 118 -7 124 12 3 121 7
242 10 127 2 237 9 259 16 72 22 200 88 316 164 63 42 120 76 127 76 6 0 25
-35 41 -77z m-5988 27 c0 -5 -4 -10 -10 -10 -5 0 -10 5 -10 10 0 6 5 10 10 10
6 0 10 -4 10 -10z m4635 0 c3 -5 1 -10 -4 -10 -6 0 -11 5 -11 10 0 6 2 10 4
10 3 0 8 -4 11 -10z m-1193 -22 c-7 -7 -12 -8 -12 -2 0 14 12 26 19 19 2 -3
-1 -11 -7 -17z m5378 -8 c0 -5 -7 -10 -15 -10 -8 0 -15 5 -15 10 0 6 7 10 15
10 8 0 15 -4 15 -10z m90 -10 c0 -22 -1 -23 -24 -14 -13 5 -14 9 -5 20 16 20
29 17 29 -6z m-8910 -26 c0 -8 -4 -12 -10 -9 -5 3 -10 10 -10 16 0 5 5 9 10 9
6 0 10 -7 10 -16z m8689 -10 c-14 -18 -24 -11 -15 11 3 9 11 13 16 10 8 -5 7
-11 -1 -21z m246 -14 c-16 -16 -31 -28 -34 -25 -2 3 8 19 24 35 16 16 31 28
34 25 2 -3 -8 -19 -24 -35z m-4275 9 c-7 -11 -14 -18 -17 -15 -8 8 5 36 17 36
7 0 7 -6 0 -21z m-1320 -2 c0 -2 -10 -12 -22 -23 l-23 -19 19 23 c18 21 26 27
26 19z m457 -3 c-3 -3 -12 -4 -19 -1 -8 3 -5 6 6 6 11 1 17 -2 13 -5z m713 -4
c-19 -13 -30 -13 -30 0 0 6 10 10 23 10 18 0 19 -2 7 -10z m2656 -17 c-10 -10
-19 5 -10 18 6 11 8 11 12 0 2 -7 1 -15 -2 -18z m1114 23 c0 -11 -19 -15 -25
-6 -3 5 1 10 9 10 9 0 16 -2 16 -4z m830 -21 c9 -11 10 -19 3 -26 -14 -14 -43
0 -43 22 0 23 23 25 40 4z m-340 -16 c0 -5 -9 -9 -19 -9 -11 0 -27 -10 -35
-22 -15 -20 -16 -21 -16 -4 0 28 28 55 51 49 10 -3 19 -9 19 -14z m118 -24
c12 -12 -14 -23 -41 -18 -21 4 -25 8 -17 19 11 12 46 12 58 -1z m172 5 c0 -5
-7 -10 -15 -10 -8 0 -15 5 -15 10 0 6 7 10 15 10 8 0 15 -4 15 -10z m-55 -9
c6 -11 -21 -41 -37 -41 -5 0 -7 7 -4 16 3 9 6 20 6 25 0 12 27 12 35 0z
m-4462 -29 c-3 -12 -10 -22 -15 -22 -5 0 -7 3 -5 8 2 4 7 16 11 26 9 25 17 16
9 -12z m-4618 8 c3 -5 1 -10 -4 -10 -6 0 -11 5 -11 10 0 6 2 10 4 10 3 0 8 -4
11 -10z m8875 -5 c0 -6 -57 -35 -70 -35 -19 0 -10 20 13 30 24 10 57 13 57 5z
m-1854 -32 c-10 -10 -19 5 -10 18 6 11 8 11 12 0 2 -7 1 -15 -2 -18z m2164 17
c0 -5 -2 -10 -4 -10 -3 0 -8 5 -11 10 -3 6 -1 10 4 10 6 0 11 -4 11 -10z
m-210 -9 c0 -5 -7 -14 -15 -21 -16 -14 -18 -10 -9 14 6 17 24 22 24 7z m-250
-21 c-14 -11 -30 -24 -37 -30 -7 -5 -16 -10 -20 -10 -12 1 60 60 72 60 5 -1
-1 -10 -15 -20z m-2393 -6 c-3 -3 -12 -4 -19 -1 -8 3 -5 6 6 6 11 1 17 -2 13
-5z m2641 -68 c-19 -17 -40 -43 -48 -58 -7 -16 -18 -24 -26 -21 -30 11 -11 41
66 106 47 39 54 14 8 -27z m-2301 38 c-3 -3 -12 -4 -19 -1 -8 3 -5 6 6 6 11 1
17 -2 13 -5z m-6707 -39 c0 -8 -7 -15 -15 -15 -8 0 -15 7 -15 15 0 8 7 15 15
15 8 0 15 -7 15 -15z m7250 -1 c0 -9 -5 -14 -12 -12 -18 6 -21 28 -4 28 9 0
16 -7 16 -16z m1650 2 c0 -16 -35 -27 -58 -18 -13 4 -10 9 13 18 39 17 45 17
45 0z m345 4 c4 -6 14 -10 23 -9 33 3 42 -1 42 -20 0 -27 -24 -43 -53 -36 -21
6 -32 0 -62 -34 -21 -23 -46 -41 -56 -41 -28 0 -13 22 36 53 47 30 55 47 31
66 -11 9 -24 8 -57 -3 -51 -18 -63 -12 -30 15 26 21 115 27 126 9z m-752 -104
c-38 -33 -43 -23 -7 15 16 16 30 25 32 20 2 -6 -9 -22 -25 -35z m821 -11 c-37
-30 -60 -36 -74 -19 -18 21 -3 33 34 27 28 -4 37 -1 48 16 7 12 15 16 17 10 2
-6 -9 -22 -25 -34z m-440 10 c3 -8 1 -15 -3 -15 -5 0 -17 -3 -26 -7 -15 -5
-16 -3 -6 15 14 26 27 28 35 7z m156 -5 c0 -5 -5 -10 -11 -10 -5 0 -7 5 -4 10
3 6 8 10 11 10 2 0 4 -4 4 -10z m325 -61 c0 -8 -6 -20 -13 -28 -12 -13 -11
-16 7 -23 12 -4 21 -16 21 -28 0 -18 -4 -20 -34 -15 -29 6 -38 2 -70 -31 -20
-20 -39 -34 -43 -30 -4 4 6 18 22 31 l30 23 -27 7 c-34 9 -35 18 -5 34 19 10
17 11 -17 5 -21 -3 -47 -11 -57 -17 -14 -9 -21 -9 -31 1 -9 9 -9 12 3 12 8 0
32 12 53 26 31 21 45 25 77 20 32 -5 40 -3 49 15 12 22 35 21 35 -2z m-212 4
c4 -3 -5 -12 -19 -20 -33 -16 -34 -16 -34 1 0 20 39 34 53 19z m-9273 -33 c0
-5 -5 -10 -11 -10 -5 0 -7 5 -4 10 3 6 8 10 11 10 2 0 4 -4 4 -10z m9194 -31
c-3 -5 -17 -9 -32 -9 -25 1 -26 2 -9 15 20 14 51 10 41 -6z m-5419 -18 c-3 -6
-14 -11 -23 -11 -13 0 -13 2 4 14 21 15 30 14 19 -3z m5235 15 c0 -2 -8 -10
-17 -17 -16 -13 -17 -12 -4 4 13 16 21 21 21 13z m-305 -16 c3 -5 1 -10 -4
-10 -6 0 -11 5 -11 10 0 6 2 10 4 10 3 0 8 -4 11 -10z m815 -73 c0 -15 -11
-28 -35 -41 -19 -11 -37 -17 -40 -14 -9 9 20 58 38 64 9 3 17 10 17 15 0 6 5
7 10 4 6 -3 10 -16 10 -28z m-2690 3 c0 -5 -4 -10 -10 -10 -5 0 -10 5 -10 10
0 6 5 10 10 10 6 0 10 -4 10 -10z m2496 -15 c-27 -21 -53 -20 -36 0 7 8 22 15
34 15 21 -1 21 -1 2 -15z m-1026 -9 c0 -2 -7 -7 -16 -10 -8 -3 -12 -2 -9 4 6
10 25 14 25 6z m-3625 -36 c3 -5 1 -10 -4 -10 -6 0 -11 5 -11 10 0 6 2 10 4
10 3 0 8 -4 11 -10z m4868 -10 c3 -11 1 -18 -4 -14 -5 3 -9 0 -9 -5 0 -6 -4
-11 -10 -11 -14 0 -13 18 3 35 6 8 13 14 13 15 1 0 4 -9 7 -20z m-825 -21 c-2
-6 -19 -17 -37 -25 l-33 -14 24 25 c23 25 53 34 46 14z m212 -9 c0 -5 -4 -10
-9 -10 -6 0 -13 5 -16 10 -3 6 1 10 9 10 9 0 16 -4 16 -10z m290 0 c0 -5 -9
-10 -20 -10 -11 0 -20 5 -20 10 0 6 9 10 20 10 11 0 20 -4 20 -10z m-90 -4 c0
-3 -4 -8 -10 -11 -5 -3 -10 -1 -10 4 0 6 5 11 10 11 6 0 10 -2 10 -4z m307 -2
c-3 -3 -12 -4 -19 -1 -8 3 -5 6 6 6 11 1 17 -2 13 -5z m38 -14 c-3 -5 -10 -10
-16 -10 -5 0 -9 5 -9 10 0 6 7 10 16 10 8 0 12 -4 9 -10z m-9485 -21 c0 -5 -4
-9 -10 -9 -5 0 -10 7 -10 16 0 8 5 12 10 9 6 -3 10 -10 10 -16z m9333 -19 c-9
-11 -19 -17 -21 -15 -6 6 18 35 29 35 5 0 1 -9 -8 -20z m-9355 -28 c2 -7 -3
-12 -12 -12 -9 0 -16 7 -16 16 0 17 22 14 28 -4z m4392 3 c0 -8 -7 -15 -16
-15 -14 0 -14 3 -4 15 7 8 14 15 16 15 2 0 4 -7 4 -15z m5099 4 c23 -8 35 -8
46 1 19 16 36 4 27 -20 -12 -32 -112 -77 -112 -50 0 5 -11 12 -25 16 -24 6
-24 7 -8 19 15 11 21 11 33 1 8 -8 21 -11 28 -9 10 4 8 11 -9 29 -26 27 -24
28 20 13z m116 -10 c4 -12 3 -25 -3 -31 -6 -6 -11 1 -14 21 -5 35 7 42 17 10z
m-35 -58 c0 -5 -7 -12 -16 -15 -14 -5 -15 -4 -4 9 14 17 20 19 20 6z m-365
-21 c-3 -5 -11 -10 -16 -10 -6 0 -7 5 -4 10 3 6 11 10 16 10 6 0 7 -4 4 -10z
m212 -12 c9 -7 7 -17 -9 -39 -25 -34 -55 -41 -38 -10 12 24 2 32 -43 32 -53 0
-92 10 -76 20 19 11 151 9 166 -3z m-257 -28 c-10 -18 -47 -40 -68 -40 -9 0
61 59 71 60 4 0 3 -9 -3 -20z m465 -12 c-6 -31 -37 -49 -50 -29 -3 5 7 19 21
30 33 26 34 26 29 -1z m-175 -48 c0 -11 -7 -20 -15 -20 -15 0 -21 21 -8 33 12
13 23 7 23 -13z m-115 0 c-3 -5 -13 -10 -21 -10 -8 0 -12 5 -9 10 3 6 13 10
21 10 8 0 12 -4 9 -10z m80 -40 c-3 -5 -10 -10 -16 -10 -5 0 -9 5 -9 10 0 6 7
10 16 10 8 0 12 -4 9 -10z m193 -23 c-4 -21 -1 -23 21 -19 21 4 24 2 14 -8
-17 -19 -58 -4 -71 25 -11 23 -10 25 14 25 22 0 26 -4 22 -23z m-9696 -49 c-7
-7 -12 -8 -12 -2 0 14 12 26 19 19 2 -3 -1 -11 -7 -17z m9551 -25 c-7 -2 -19
-2 -25 0 -7 3 -2 5 12 5 14 0 19 -2 13 -5z m168 -28 c-1 -10 -20 -14 -34 -7
-4 2 -5 8 -1 13 7 13 35 8 35 -6z m-242 -26 c-13 -10 -26 -16 -28 -13 -8 8 32
44 42 37 5 -3 -1 -14 -14 -24z m276 -11 c-3 -13 -9 -43 -12 -68 -2 -25 -5 -46
-6 -47 -1 -1 -22 3 -47 9 -25 5 -54 9 -65 8 -90 -5 -112 3 -81 26 14 10 23 11
32 3 9 -7 19 -7 34 1 16 9 25 9 33 1 21 -21 63 -13 75 14 10 22 9 25 -8 25
-28 0 -25 16 8 33 39 21 45 20 37 -5z m-625 8 c0 -3 -4 -8 -10 -11 -5 -3 -10
-1 -10 4 0 6 5 11 10 11 6 0 10 -2 10 -4z m380 -40 c0 -8 -63 -36 -68 -31 -8
8 31 34 51 35 9 0 17 -2 17 -4z m80 0 c0 -3 -4 -8 -10 -11 -5 -3 -10 -1 -10 4
0 6 5 11 10 11 6 0 10 -2 10 -4z m-9615 -86 c-5 -8 -11 -8 -17 -2 -6 6 -7 16
-3 22 5 8 11 8 17 2 6 -6 7 -16 3 -22z m8825 10 c0 -5 -4 -10 -10 -10 -5 0
-10 5 -10 10 0 6 5 10 10 10 6 0 10 -4 10 -10z m935 -64 c8 -50 -2 -79 -17
-52 -11 20 -36 21 -59 0 -10 -9 -24 -14 -31 -11 -8 3 -1 12 19 23 32 19 49 42
38 53 -3 3 -15 0 -25 -7 -11 -7 -28 -12 -38 -12 -10 0 -23 -5 -30 -12 -9 -9
-12 -9 -12 -1 0 12 18 27 35 28 6 1 17 4 25 7 22 9 74 26 82 27 4 1 10 -19 13
-43z m-175 24 c0 -14 -45 -30 -78 -29 l-27 2 27 4 c14 2 32 11 38 19 14 16 40
19 40 4z m135 -140 c-12 -23 -20 -29 -27 -22 -6 6 -25 9 -42 6 l-31 -6 25 21
c14 11 35 21 47 21 12 0 25 5 28 11 16 24 15 -2 0 -31z m-160 10 c-3 -5 -11
-10 -16 -10 -6 0 -7 5 -4 10 3 6 11 10 16 10 6 0 7 -4 4 -10z m105 -80 c0 -5
-7 -10 -15 -10 -8 0 -15 5 -15 10 0 6 7 10 15 10 8 0 15 -4 15 -10z m70 -34
c13 -18 13 -19 0 -11 -12 6 -13 5 -2 -6 10 -11 6 -18 -19 -41 -33 -31 -65 -38
-55 -12 3 9 6 26 6 39 0 16 7 25 25 29 14 4 25 12 25 18 0 6 1 9 3 7 1 -2 9
-13 17 -23z m-848 -18 c-6 -6 -15 -8 -19 -4 -4 4 -1 11 7 16 19 12 27 3 12
-12z m-8917 -28 c3 -5 -3 -10 -14 -10 -12 0 -21 5 -21 10 0 6 6 10 14 10 8 0
18 -4 21 -10z m5102 -26 c-3 -3 -12 -4 -19 -1 -8 3 -5 6 6 6 11 1 17 -2 13 -5z
m3850 0 c-3 -3 -12 -4 -19 -1 -8 3 -5 6 6 6 11 1 17 -2 13 -5z m843 -10 c0
-16 -27 -43 -42 -44 -14 0 -9 19 10 39 21 24 32 26 32 5z m-9800 -84 c0 -5 -4
-10 -10 -10 -5 0 -10 5 -10 10 0 6 5 10 10 10 6 0 10 -4 10 -10z m9810 -1 c0
-6 -7 -18 -16 -27 -15 -14 -15 -17 0 -28 20 -14 12 -40 -16 -47 -29 -8 -48 2
-48 26 0 11 -7 29 -16 39 -14 15 -15 18 -2 23 8 3 27 1 42 -5 24 -9 29 -8 33
10 6 21 23 28 23 9z m-833 -41 c-3 -8 -6 -5 -6 6 -1 11 2 17 5 13 3 -3 4 -12
1 -19z m-123 4 c2 -4 -5 -9 -17 -9 -17 -2 -19 0 -7 7 18 12 18 12 24 2z
m-8854 -26 c0 -3 -4 -8 -10 -11 -5 -3 -10 -1 -10 4 0 6 5 11 10 11 6 0 10 -2
10 -4z m3380 -31 c-7 -8 -17 -15 -22 -15 -6 0 -5 7 2 15 7 8 17 15 22 15 6 0
5 -7 -2 -15z m5475 -17 c18 -5 18 -6 -5 -15 -19 -8 -28 -8 -39 2 -16 16 -5 41
12 27 7 -6 21 -12 32 -14z m-6505 -2 c0 -3 -4 -8 -10 -11 -5 -3 -10 -1 -10 4
0 6 5 11 10 11 6 0 10 -2 10 -4z m7245 -16 c-13 -14 -29 -20 -51 -18 -39 2
-36 9 14 24 53 17 57 16 37 -6z m113 8 c-3 -7 -17 -15 -33 -16 -25 -3 -27 -2
-16 12 16 19 55 22 49 4z m126 -3 c3 -9 -1 -18 -9 -21 -8 -4 -13 -10 -10 -14
7 -12 -5 -40 -17 -40 -6 0 -4 7 3 16 11 14 11 18 -4 29 -20 14 -22 31 -4 38
23 10 35 7 41 -8z m-863 -31 l24 -26 -30 4 c-23 2 -30 8 -31 26 -2 29 7 28 37
-4z m-8961 -14 c0 -13 -28 -25 -38 -16 -3 4 0 11 8 16 20 13 30 12 30 0z
m4587 4 c-3 -3 -12 -4 -19 -1 -8 3 -5 6 6 6 11 1 17 -2 13 -5z m5176 -14 c6
-23 -21 -28 -41 -8 -18 18 -14 28 12 28 15 0 26 -7 29 -20z m-6693 -10 c0 -5
-7 -10 -16 -10 -8 0 -12 5 -9 10 3 6 10 10 16 10 5 0 9 -4 9 -10z m5010 0 c0
-5 -5 -10 -11 -10 -5 0 -7 5 -4 10 3 6 8 10 11 10 2 0 4 -4 4 -10z m1530 -20
c0 -5 -4 -10 -10 -10 -5 0 -10 5 -10 10 0 6 5 10 10 10 6 0 10 -4 10 -10z
m-799 -29 c13 -11 21 -22 18 -25 -3 -3 -14 2 -25 13 -11 10 -26 21 -34 24 -12
4 -12 6 1 6 9 1 27 -8 40 -18z m136 -16 c-9 -19 -13 -21 -15 -9 -3 13 12 33
25 34 0 0 -4 -11 -10 -25z m831 15 c13 0 14 -2 3 -9 -9 -6 -10 -11 -2 -15 6
-4 16 -4 22 0 6 3 15 1 19 -7 17 -26 -79 -69 -100 -44 -9 10 -4 15 20 20 37 8
38 18 4 33 -26 12 -24 38 3 28 8 -3 22 -6 31 -6z m-4467 -55 c-11 -22 -20 -34
-21 -27 0 19 33 88 37 76 2 -6 -6 -28 -16 -49z m3724 14 c-4 -5 -2 -9 4 -9 14
0 38 -51 34 -72 -3 -9 -10 -15 -17 -12 -8 3 -16 -4 -20 -18 -6 -23 -6 -22 -25
9 -11 17 -27 35 -36 41 -24 13 -15 43 20 62 30 17 50 17 40 -1z m-9024 -4 c-1
-15 -24 -12 -29 3 -3 9 2 13 12 10 10 -1 17 -7 17 -13z m5489 -2 c-1 -15 -30
-46 -37 -40 -3 4 2 16 12 27 19 21 25 24 25 13z m3276 -6 c4 -4 0 -7 -9 -7 -9
0 -18 4 -21 9 -7 10 20 9 30 -2z m94 -7 c0 -5 -2 -10 -4 -10 -3 0 -8 5 -11 10
-3 6 -1 10 4 10 6 0 11 -4 11 -10z m68 -53 c11 -24 27 -49 36 -56 9 -8 16 -22
16 -32 0 -27 17 -32 34 -8 8 12 19 18 24 15 6 -3 13 0 15 6 3 7 6 -2 6 -19 1
-18 6 -33 12 -33 8 0 8 -4 0 -14 -9 -10 -9 -21 -3 -33 10 -18 -9 -49 -22 -36
-14 14 -32 -20 -34 -63 -1 -25 -6 -52 -11 -58 -5 -6 -8 -22 -7 -36 1 -14 -2
-33 -7 -43 -11 -23 -5 -30 17 -21 9 3 16 15 16 25 0 10 5 19 10 19 6 0 10 23
10 50 0 55 10 64 28 25 6 -14 18 -25 27 -25 19 0 20 -34 1 -52 -12 -13 -22
-48 -30 -110 -3 -22 0 -28 14 -28 10 0 21 -7 24 -16 9 -24 7 -56 -4 -49 -17
10 -54 -37 -55 -71 0 -18 -9 -42 -20 -53 -13 -16 -16 -24 -7 -33 11 -11 4 -29
-30 -76 -18 -25 -13 -62 8 -62 9 0 14 -11 14 -31 0 -23 5 -32 21 -36 12 -4 18
-11 15 -20 -14 -37 -17 -61 -7 -67 6 -4 11 -15 11 -24 0 -13 -2 -13 -14 4 -13
17 -16 17 -30 4 -9 -8 -17 -36 -18 -62 -3 -42 -6 -47 -25 -45 -20 1 -21 3 -8
17 19 22 19 40 -1 40 -8 0 -13 -4 -10 -8 3 -5 -4 -19 -15 -31 -11 -12 -17 -26
-14 -31 6 -10 -41 -60 -56 -60 -5 0 -9 7 -9 15 0 8 -7 15 -15 15 -8 0 -15 -7
-15 -15 0 -11 -12 -15 -49 -15 -28 0 -53 5 -56 10 -3 6 2 10 11 10 25 0 54 30
54 55 0 26 -20 37 -41 24 -8 -5 -29 -9 -46 -9 -45 0 -43 24 3 64 28 24 37 40
39 68 l3 37 -31 -22 c-18 -12 -34 -25 -37 -28 -3 -3 -15 -11 -27 -18 -19 -9
-28 -8 -48 5 -27 17 -25 29 3 29 9 0 20 -9 23 -20 6 -19 6 -20 14 -1 5 11 21
31 37 45 20 18 27 31 23 44 -8 19 -40 23 -50 7 -6 -9 -61 21 -75 41 -3 4 -18
11 -33 14 -34 9 -36 25 -3 25 34 0 40 14 21 50 -8 16 -12 31 -8 32 5 0 13 2
18 2 22 4 55 28 55 40 0 8 7 16 15 20 21 8 19 32 -3 48 -11 7 -21 25 -24 40
-5 25 -4 26 15 13 15 -11 24 -12 34 -3 20 16 16 37 -14 63 -23 20 -25 24 -10
25 10 0 25 7 33 15 14 13 14 17 0 31 -9 8 -24 15 -33 14 -25 -3 -63 11 -63 22
0 5 8 8 18 7 29 -5 72 11 72 26 0 8 -7 15 -15 15 -8 0 -15 -4 -15 -10 0 -5 -5
-10 -11 -10 -6 0 -9 14 -7 33 3 31 5 32 42 30 22 -2 43 -8 47 -14 10 -17 43
-6 47 15 2 11 -3 23 -13 28 -15 9 -15 11 0 28 16 18 15 21 -9 53 -32 42 -32
52 -1 73 30 19 35 64 7 64 -9 0 -29 -11 -44 -25 -23 -21 -27 -22 -33 -7 -3 9
-3 13 1 10 3 -4 13 -1 21 7 16 17 10 46 -12 65 -24 20 -17 34 22 47 30 9 42 9
63 -2 14 -8 21 -14 17 -15 -5 0 -5 -6 0 -12 4 -7 8 -24 8 -38 1 -36 17 -40 21
-5 2 16 8 31 14 33 5 2 10 10 10 18 0 13 3 13 22 0 12 -9 33 -16 46 -16 17 0
22 -4 19 -14 -3 -8 0 -17 8 -20 23 -8 25 22 4 58 -11 19 -30 37 -42 40 -18 5
-20 8 -7 16 26 17 37 11 58 -33z m892 -1 c0 -13 3 -33 7 -43 6 -16 5 -16 -10
-4 -9 7 -14 18 -11 23 3 5 -2 18 -12 29 -16 18 -16 19 4 19 17 0 22 -6 22 -24z
m-167 -7 c-6 -6 -19 -9 -29 -6 -17 3 -16 5 6 14 28 12 39 8 23 -8z m-9623 -19
c0 -10 -41 -30 -61 -30 -14 0 -11 28 4 33 22 9 57 7 57 -3z m8575 -40 c3 -6
-1 -7 -9 -4 -18 7 -21 14 -7 14 6 0 13 -4 16 -10z m1223 -92 c0 -47 -2 -50
-31 -61 -41 -15 -73 -12 -106 10 -24 16 -25 18 -6 21 11 2 26 9 33 15 11 9 10
12 -2 19 -9 5 -16 14 -16 20 0 15 53 0 63 -18 9 -16 47 -19 47 -5 0 6 -9 16
-21 24 -19 14 -20 16 -3 25 31 17 43 3 42 -50z m-1568 36 c0 -8 -4 -12 -10 -9
-5 3 -10 10 -10 16 0 5 5 9 10 9 6 0 10 -7 10 -16z m-8240 -39 c0 -8 -4 -15
-9 -15 -5 0 -11 7 -15 15 -3 9 0 15 9 15 8 0 15 -7 15 -15z m9635 -4 c7 -12
-12 -24 -25 -16 -11 7 -4 25 10 25 5 0 11 -4 15 -9z m-1235 -16 c0 -8 -4 -15
-10 -15 -5 0 -10 7 -10 15 0 8 5 15 10 15 6 0 10 -7 10 -15z m124 -21 c4 -11
1 -14 -11 -12 -9 2 -18 9 -21 16 -6 18 25 15 32 -4z m516 -34 c0 -5 -5 -10
-11 -10 -5 0 -7 5 -4 10 3 6 8 10 11 10 2 0 4 -4 4 -10z m-427 -25 c1 -6 -11
-11 -28 -13 -29 -2 -29 -2 -10 13 20 16 35 16 38 0z m497 -17 c0 -16 -3 -19
-11 -11 -6 6 -8 16 -5 22 11 17 16 13 16 -11z m700 17 c0 -2 -20 -14 -45 -25
-55 -25 -84 -15 -34 11 31 17 79 25 79 14z m-225 -15 c-3 -5 -13 -10 -21 -10
-8 0 -12 5 -9 10 3 6 13 10 21 10 8 0 12 -4 9 -10z m45 -14 c0 -2 -7 -9 -15
-16 -12 -10 -15 -10 -15 4 0 9 7 16 15 16 8 0 15 -2 15 -4z m170 -26 c0 -5 -8
-10 -17 -10 -15 0 -16 2 -3 10 19 12 20 12 20 0z m-215 -20 c-3 -5 -14 -10
-23 -10 -15 0 -15 2 -2 10 20 13 33 13 25 0z m172 -27 c6 -18 -34 -36 -54 -25
-14 9 -14 10 5 16 12 4 22 12 22 18 0 13 23 5 27 -9z m33 -24 c0 -5 -7 -9 -15
-9 -15 0 -20 12 -9 23 8 8 24 -1 24 -14z m-9750 -8 c0 -19 -20 -22 -36 -7 -14
15 -13 16 10 16 14 0 26 -4 26 -9z m9708 -44 c16 -19 -3 -46 -20 -29 -6 6 -21
12 -32 12 -21 1 -21 1 -2 15 24 18 40 19 54 2z m-9543 -87 c3 -5 1 -10 -4 -10
-6 0 -11 5 -11 10 0 6 2 10 4 10 3 0 8 -4 11 -10z m9565 -11 c0 -26 -22 -49
-47 -49 -14 0 -32 -8 -39 -17 -10 -14 -17 -16 -31 -7 -27 16 -29 44 -4 44 12
0 21 4 21 8 0 5 6 9 13 10 21 1 59 11 65 17 9 9 22 6 22 -6z m-9430 -29 c0 -5
-5 -10 -11 -10 -5 0 -7 5 -4 10 3 6 8 10 11 10 2 0 4 -4 4 -10z m8200 -101 c0
-6 -4 -7 -10 -4 -5 3 -10 11 -10 16 0 6 5 7 10 4 6 -3 10 -11 10 -16z m1080
-23 c0 -7 -14 -16 -32 -20 -39 -8 -58 -23 -58 -48 0 -15 4 -18 23 -12 12 4 26
12 30 18 4 6 6 -5 5 -24 -3 -33 -5 -35 -40 -34 -39 1 -68 18 -68 38 0 6 16 22
34 36 18 14 32 30 29 37 -4 11 17 18 60 22 9 0 17 -5 17 -13z m-1050 -6 c0 -5
-2 -10 -4 -10 -3 0 -8 5 -11 10 -3 6 -1 10 4 10 6 0 11 -4 11 -10z m-5142 -42
c-2 -6 -15 -15 -28 -20 -23 -9 -23 -8 -5 12 20 22 39 27 33 8z m6025 -57 c4 0
12 -1 18 -1 5 0 7 -4 4 -10 -3 -5 2 -10 11 -10 14 0 15 -3 6 -12 -10 -10 -19
-9 -43 5 -17 9 -37 17 -45 17 -8 0 -14 4 -14 8 0 16 12 21 34 13 11 -5 24 -9
29 -10z m-4718 -51 c-3 -5 -10 -10 -16 -10 -5 0 -9 5 -9 10 0 6 7 10 16 10 8
0 12 -4 9 -10z m-43 -32 c-7 -7 -12 -8 -12 -2 0 6 3 14 7 17 3 4 9 5 12 2 2
-3 -1 -11 -7 -17z m4715 -35 c-11 -10 -26 8 -20 23 5 15 7 14 15 -1 6 -9 7
-19 5 -22z m-308 18 c18 -11 5 -31 -20 -31 -10 0 -19 -4 -19 -10 0 -5 -4 -10
-10 -10 -15 0 -12 21 7 42 18 20 22 21 42 9z m358 -43 c-3 -8 -6 -5 -6 6 -1
11 2 17 5 13 3 -3 4 -12 1 -19z m55 -10 c2 -17 10 -23 27 -23 13 0 26 -6 29
-14 2 -8 0 -11 -5 -8 -13 8 -37 -9 -29 -22 4 -6 16 -11 27 -11 26 0 20 -21
-10 -36 -15 -8 -34 -9 -51 -4 -21 6 -30 4 -34 -6 -5 -14 -46 -20 -46 -6 0 16
19 34 29 28 18 -12 13 26 -6 39 -15 11 -15 15 -4 29 17 20 31 21 31 2 0 -19
13 -27 28 -17 8 5 8 13 -2 33 -13 25 -12 38 5 38 4 0 9 -10 11 -22z m-5435
-45 c-9 -9 -20 -14 -24 -10 -3 4 2 14 13 21 25 19 33 10 11 -11z m5018 -10
c-2 -10 -4 -21 -4 -25 -2 -14 -21 -9 -21 5 0 11 19 37 26 37 1 0 1 -8 -1 -17z
m285 -24 c0 -5 -4 -9 -10 -9 -5 0 -10 7 -10 16 0 8 5 12 10 9 6 -3 10 -10 10
-16z m-993 -91 c-3 -8 -6 -5 -6 6 -1 11 2 17 5 13 3 -3 4 -12 1 -19z m1202 13
c9 -6 11 -18 7 -36 -7 -26 -8 -26 -31 -11 -31 20 -32 20 -45 -4 -6 -11 -7 -19
-3 -18 15 5 73 -27 73 -39 0 -7 -4 -13 -9 -13 -5 0 -11 -8 -13 -17 -3 -16 -6
-15 -23 5 -11 12 -27 22 -35 22 -9 0 -25 7 -36 15 -10 8 -29 15 -41 15 -25 0
-30 21 -10 38 7 6 33 14 57 18 25 4 51 13 58 21 15 15 31 16 51 4z m-927 -61
c6 0 9 -3 6 -6 -9 -8 -48 14 -48 27 0 6 7 3 16 -5 8 -9 20 -16 26 -16z m48
-20 c12 -8 11 -10 -7 -10 -13 0 -23 5 -23 10 0 13 11 13 30 0z m833 -100 c9
-11 14 -20 11 -20 -4 0 -2 -6 4 -12 19 -24 25 -94 9 -110 -8 -8 -14 -26 -14
-41 0 -38 -12 -46 -30 -22 -11 14 -17 16 -20 8 -9 -24 -83 -7 -83 18 0 6 5 7
11 4 24 -15 60 -12 70 6 8 16 5 21 -16 29 -33 13 -32 26 5 39 25 8 32 7 37 -4
7 -20 33 -19 33 0 0 18 -44 37 -74 33 -12 -2 -20 -9 -18 -16 3 -15 -45 -39
-56 -28 -4 4 5 18 21 30 15 12 27 27 27 34 0 7 13 15 28 18 24 5 28 10 24 30
-5 29 8 31 31 4z m-1179 -41 c0 -20 -7 -43 -15 -51 -12 -13 -15 -12 -26 10 -9
17 -10 29 -3 37 5 6 7 15 4 18 -10 10 7 28 24 25 12 -2 17 -13 16 -39z m121
22 c3 -5 1 -12 -4 -15 -5 -3 -11 1 -15 9 -6 16 9 21 19 6z m175 -10 c0 -47 25
-66 50 -37 6 8 18 12 26 9 8 -3 21 0 28 6 17 15 28 1 15 -19 -5 -8 -9 -28 -10
-45 -1 -29 -1 -29 -8 -5 -7 24 -41 42 -41 21 0 -8 -7 -7 -21 1 -17 11 -22 10
-35 -6 -8 -11 -14 -33 -14 -50 0 -16 -7 -37 -15 -46 -19 -21 -11 -44 21 -58
13 -7 25 -17 25 -24 1 -7 2 -19 3 -27 0 -8 6 -16 13 -18 10 -4 25 38 27 74 1
6 11 21 24 33 27 26 30 7 5 -42 -29 -58 -33 -68 -33 -78 0 -18 26 -10 50 15
13 14 25 23 27 21 2 -2 -7 -28 -21 -57 -14 -30 -28 -67 -31 -82 -3 -16 -16
-38 -29 -50 -13 -12 -26 -39 -30 -60 -6 -31 -11 -38 -26 -34 -24 6 -33 -1 -53
-45 -10 -21 -22 -38 -27 -38 -10 0 -40 -52 -40 -70 0 -5 9 -10 21 -10 13 0 25
11 35 35 15 37 34 47 34 18 0 -10 4 -24 9 -32 7 -11 12 -3 21 28 6 23 18 45
26 48 24 9 29 -5 9 -26 -17 -20 -18 -62 0 -106 7 -16 2 -15 -22 8 -34 32 -43
28 -36 -18 3 -19 1 -35 -6 -39 -6 -4 -11 -16 -11 -28 0 -20 0 -20 18 2 10 13
23 19 33 15 14 -5 15 -11 4 -40 -6 -19 -14 -38 -18 -41 -4 -4 -7 -15 -7 -25 0
-10 -8 -23 -18 -28 -20 -11 -62 -4 -62 10 0 17 -50 42 -63 31 -18 -16 -51 10
-34 27 10 10 8 12 -8 9 -11 -2 -19 -10 -18 -16 2 -7 -4 -12 -12 -12 -19 0 -33
32 -17 38 7 2 12 14 12 27 0 26 24 50 40 40 6 -4 10 4 10 19 0 14 15 55 34 90
25 47 31 67 23 75 -8 8 -8 14 1 23 9 9 12 8 12 -6 0 -9 5 -14 10 -11 6 3 7 18
4 32 -5 20 -4 24 6 18 10 -6 12 -4 7 10 -6 13 -3 16 11 13 27 -7 17 34 -11 52
-19 12 -21 11 -9 -2 10 -12 10 -17 -1 -26 -20 -17 -16 27 5 57 21 30 13 48
-12 26 -10 -9 -23 -15 -27 -12 -5 3 -9 -3 -9 -13 0 -10 4 -16 8 -14 4 3 8 1 8
-5 0 -14 -18 -23 -25 -12 -3 6 -30 -15 -60 -46 -57 -57 -74 -52 -31 8 14 19
37 55 52 82 15 26 32 47 39 47 16 0 52 41 57 65 2 13 11 20 26 19 12 -1 22 4
22 11 0 8 3 20 6 29 4 11 -4 21 -25 33 -23 13 -31 25 -31 45 0 20 4 26 14 22
11 -4 18 7 26 38 7 24 16 51 21 60 5 10 9 34 9 53 0 19 5 35 10 35 6 0 10 -9
10 -19z m145 10 c14 -1 16 -4 7 -13 -8 -8 -15 -8 -27 2 -13 11 -19 10 -35 -5
-11 -10 -20 -16 -20 -12 0 3 -2 12 -5 19 -6 14 1 15 80 9z m-275 -17 c0 -8 -4
-12 -10 -9 -5 3 -10 10 -10 16 0 5 5 9 10 9 6 0 10 -7 10 -16z m80 2 c9 -12 7
-17 -9 -28 -12 -7 -21 -22 -21 -34 0 -12 -7 -27 -15 -34 -13 -10 -15 -9 -15 8
0 12 5 24 10 27 15 9 12 38 -2 32 -7 -2 -12 -10 -10 -16 1 -6 -2 -11 -7 -11
-9 0 -22 -31 -26 -62 -1 -10 -7 -24 -14 -31 -6 -8 -7 -18 -3 -23 4 -4 -1 -2
-10 5 -16 12 -16 16 -3 48 8 20 15 48 15 64 0 16 3 28 8 28 20 -3 31 3 37 21
8 24 47 27 65 6z m749 -34 c-5 -2 -22 -1 -36 3 -19 4 -23 9 -14 14 7 5 23 3
37 -3 13 -6 19 -13 13 -14z m-989 -48 c0 -8 -5 -12 -10 -9 -6 4 -8 11 -5 16 9
14 15 11 15 -7z m440 -8 c-5 -5 -10 -18 -10 -27 0 -10 -5 -21 -12 -25 -8 -5
-9 0 -4 17 4 13 8 29 8 35 1 6 7 11 15 11 9 0 10 -4 3 -11z m-94 -92 c-12 -25
-22 -36 -24 -27 -2 8 0 19 6 25 5 5 7 30 5 56 l-5 47 20 -30 c19 -30 19 -30
-2 -71z m-379 64 c-3 -8 -6 -5 -6 6 -1 11 2 17 5 13 3 -3 4 -12 1 -19z m68
-18 c-10 -11 -20 -18 -23 -15 -3 3 3 14 13 25 10 11 20 18 23 15 3 -3 -3 -14
-13 -25z m962 -32 c6 -7 10 -20 10 -28 1 -8 4 -23 8 -32 4 -11 3 -18 -4 -18
-7 0 -13 6 -15 13 -2 6 -8 27 -14 45 -10 32 -3 43 15 20z m-8798 -44 c-15 -16
-34 -24 -56 -24 -35 0 -39 5 -23 30 5 9 22 13 44 12 21 -2 36 2 36 8 0 6 5 8
11 5 7 -5 2 -16 -12 -31z m7818 -6 c-3 -8 -6 -5 -6 6 -1 11 2 17 5 13 3 -3 4
-12 1 -19z m60 -10 c1 -7 6 -26 9 -42 9 -38 -23 -101 -42 -85 -10 8 -10 17 2
45 9 21 11 41 6 47 -4 7 -7 18 -6 25 1 6 2 20 3 29 1 13 4 14 13 5 6 -6 13
-17 15 -24z m-654 -25 c-3 -18 -9 -30 -14 -28 -4 3 -4 17 1 31 6 14 7 31 4 37
-5 8 -4 9 3 2 6 -5 9 -25 6 -42z m1747 24 c0 -24 -18 -40 -39 -34 -25 6 -27 0
-5 -24 12 -13 12 -19 3 -25 -8 -4 -10 -3 -5 4 4 7 2 12 -3 12 -6 0 -11 -4 -11
-10 0 -5 -7 -10 -16 -10 -8 0 -12 -5 -9 -11 4 -6 14 -8 22 -5 10 4 13 0 11
-12 -2 -9 -13 -18 -25 -20 -12 -2 -25 -12 -28 -23 -7 -22 -18 -24 -33 -6 -13
15 5 42 28 42 16 0 20 27 9 60 -3 11 -1 28 5 39 8 14 8 20 -2 23 -27 10 -1 18
47 15 30 -3 51 -9 51 -15z m-960 -39 c0 -4 -6 -13 -13 -20 -7 -7 -20 -29 -30
-48 l-17 -35 0 31 c0 17 7 37 15 44 8 7 15 26 15 43 0 29 1 30 15 11 8 -10 15
-22 15 -26z m-204 -1 c-1 -7 -11 -31 -22 -55 -18 -37 -22 -41 -33 -28 -11 13
-9 20 8 42 12 15 21 38 21 52 0 20 3 22 14 13 8 -7 13 -17 12 -24z m464 -82
c0 -8 -4 -15 -9 -15 -13 0 -22 16 -14 24 11 11 23 6 23 -9z m597 -84 c0 -11
-4 -19 -7 -19 -3 0 -13 0 -24 -1 -17 -1 -17 -3 -2 -26 18 -28 21 -45 5 -45 -5
0 -7 5 -4 10 4 6 -6 10 -22 11 -62 1 -76 8 -67 32 4 12 14 15 33 11 22 -5 29
-2 33 14 3 11 16 22 29 25 13 2 25 5 26 6 1 0 1 -8 0 -18z m-7221 -34 c36 -33
46 -51 51 -84 8 -64 -5 -110 -43 -153 -86 -95 -234 -68 -295 53 -25 48 -20 99
14 160 28 51 64 66 155 67 73 0 74 0 118 -43z m1095 28 c41 -22 89 -91 89
-129 0 -48 -20 -109 -43 -134 -78 -85 -231 -71 -284 25 -46 82 -19 208 50 238
44 19 151 19 188 0z m-1986 -35 c27 -28 27 -31 15 -74 -37 -133 -95 -141 -125
-16 -9 36 -19 73 -21 83 -4 13 1 17 18 17 13 0 30 5 38 10 25 16 45 11 75 -20z
m7448 -35 c-3 -9 -8 -14 -10 -11 -3 3 -2 9 2 15 9 16 15 13 8 -4z m610 -71
c-23 -16 -41 -1 -23 21 10 12 16 13 26 4 12 -10 11 -14 -3 -25z m-1039 -20 c4
-9 0 -24 -8 -33 -7 -9 -12 -27 -9 -41 2 -14 -2 -29 -9 -35 -7 -5 -14 -23 -15
-40 -2 -27 -2 -28 7 -7 5 12 14 22 20 22 5 0 10 9 10 19 0 11 5 21 11 23 6 2
13 16 14 31 5 45 27 70 62 71 31 1 31 1 11 -18 -15 -14 -22 -16 -28 -7 -5 9
-10 5 -15 -11 -8 -27 -8 -28 0 -49 3 -9 -5 -27 -22 -46 -15 -17 -36 -43 -46
-57 -10 -14 -25 -26 -34 -26 -9 0 -25 -7 -35 -17 -16 -14 -18 -15 -18 0 0 9 5
19 10 22 6 3 10 19 10 35 0 16 4 31 9 34 10 6 26 73 22 94 -1 6 2 12 7 12 5 0
12 9 15 20 6 24 23 26 31 4z m183 -5 c8 -8 7 -16 -5 -29 -29 -32 -37 -44 -40
-65 -2 -11 -7 -22 -12 -25 -4 -3 -10 -15 -14 -27 -4 -13 -12 -23 -17 -23 -12
0 -4 60 8 69 5 3 20 30 34 58 26 56 29 59 46 42z m814 -63 c-11 -28 -51 -37
-51 -11 0 8 7 15 15 15 8 0 15 5 15 11 0 5 5 7 10 4 6 -3 10 -1 10 6 0 7 2 10
5 7 3 -3 1 -17 -4 -32z m-1211 4 c0 -5 -5 -10 -11 -10 -5 0 -7 5 -4 10 3 6 8
10 11 10 2 0 4 -4 4 -10z m1120 -111 c-8 -15 -9 -19 -1 -15 6 4 11 3 11 -1 0
-15 -23 -33 -42 -33 -11 0 -18 -7 -18 -20 0 -11 7 -20 15 -20 8 0 15 -3 15 -8
0 -12 -41 -44 -48 -37 -4 3 0 10 8 15 12 7 12 13 1 34 -17 30 -9 54 20 65 15
5 18 10 11 15 -19 11 -14 26 11 35 26 10 32 0 17 -30z m38 27 c-7 -8 -15 -12
-17 -11 -5 6 10 25 20 25 5 0 4 -6 -3 -14z m-904 -71 c-9 -14 -21 -25 -27 -25
-6 0 0 11 13 25 13 14 25 25 27 25 2 0 -4 -11 -13 -25z m-276 -16 c-10 -5 -29
-30 -44 -54 -14 -25 -39 -54 -55 -66 -16 -11 -34 -29 -39 -40 -14 -25 -3 -44
16 -28 19 15 18 4 -2 -26 -22 -33 -34 -31 -34 4 0 17 -5 33 -10 36 -11 7 9 33
114 150 36 40 52 53 60 45 8 -8 6 -14 -6 -21z m177 -42 c11 -12 10 -16 -6 -28
-10 -7 -19 -20 -19 -27 0 -11 -30 -75 -47 -101 -2 -3 -8 0 -14 6 -7 7 -6 15 3
25 22 23 38 57 38 78 0 18 20 60 28 60 2 0 9 -6 17 -13z m45 -7 c0 -11 -4 -20
-8 -20 -4 0 -8 9 -9 20 -1 11 2 20 8 20 5 0 9 -9 9 -20z m375 -19 c3 -5 2 -12
-3 -15 -5 -3 -9 1 -9 9 0 17 3 19 12 6z m424 -44 c6 -8 8 -17 5 -20 -7 -7 -44
14 -44 25 0 13 27 9 39 -5z m-449 -1 c0 -2 -8 -10 -17 -17 -16 -13 -17 -12 -4
4 13 16 21 21 21 13z m-390 -56 c0 -5 -7 -10 -16 -10 -8 0 -12 5 -9 10 3 6 10
10 16 10 5 0 9 -4 9 -10z m645 -38 c-22 -5 -29 3 -21 25 7 17 8 17 22 -2 13
-18 13 -20 -1 -23z m89 23 c29 -19 66 -27 66 -14 0 5 5 9 10 9 12 0 13 -80 1
-112 -8 -22 -13 -24 -58 -19 -40 5 -49 10 -51 28 -2 12 -10 27 -18 33 -21 18
-17 35 12 49 26 11 26 12 8 26 -26 20 0 19 30 0z m-958 -60 c-1 -8 -8 -21 -14
-27 -9 -9 -12 -7 -12 8 0 12 3 24 7 27 11 12 21 8 19 -8z m854 -5 c0 -5 -2
-10 -4 -10 -3 0 -8 5 -11 10 -3 6 -1 10 4 10 6 0 11 -4 11 -10z m-1009 -79
c-12 -12 -21 -16 -21 -9 0 16 34 52 38 39 2 -5 -6 -19 -17 -30z m39 -35 c0 -2
-13 -20 -29 -40 -18 -22 -32 -32 -36 -26 -4 6 6 24 22 39 25 26 43 37 43 27z
m100 -175 c0 -11 -10 -32 -23 -47 -21 -24 -24 -25 -24 -8 0 17 32 74 43 74 2
0 4 -9 4 -19z m-207 -21 c-3 -11 -9 -20 -13 -20 -5 0 -22 -21 -39 -46 -27 -41
-71 -84 -71 -70 0 30 77 135 109 148 9 4 17 7 18 7 0 1 -1 -8 -4 -19z m-2088
-67 c-25 -18 -31 -8 -15 22 12 23 15 24 23 9 7 -13 5 -21 -8 -31z m-2163 -35
c-7 -7 -12 -8 -12 -2 0 14 12 26 19 19 2 -3 -1 -11 -7 -17z m4043 2 c3 -6 -2
-13 -12 -17 -10 -4 -26 -15 -35 -26 -10 -11 -18 -16 -18 -12 0 4 -9 0 -20 -10
-12 -11 -18 -25 -15 -34 3 -8 3 -12 -1 -9 -6 7 -34 -15 -34 -27 0 -3 -11 -17
-25 -31 -14 -14 -25 -22 -25 -18 0 8 -23 -19 -53 -61 -10 -14 -22 -25 -27 -25
-16 0 48 99 86 133 20 17 46 43 57 56 75 84 107 105 122 81z m-3824 -43 c-8
-8 -11 -7 -11 4 0 20 13 34 18 19 3 -7 -1 -17 -7 -23z m1899 -16 c0 -16 -42
-61 -57 -61 -11 0 -7 9 14 34 28 34 43 44 43 27z m126 -46 c16 -39 18 -65 5
-65 -4 0 -11 15 -14 33 -3 17 -8 40 -12 50 -13 33 6 17 21 -18z m1699 -112
c-26 -18 -32 -7 -9 18 12 14 20 17 23 8 2 -7 -4 -18 -14 -26z m-5928 -15 c-3
-7 -5 -2 -5 12 0 14 2 19 5 13 2 -7 2 -19 0 -25z m5933 -63 c-7 -8 -18 -15
-24 -15 -6 0 -2 7 8 15 25 19 32 19 16 0z m-3670 -169 c0 -3 -4 -8 -10 -11 -5
-3 -10 -1 -10 4 0 6 5 11 10 11 6 0 10 -2 10 -4z m-2016 -111 c-4 -8 -8 -15
-10 -15 -2 0 -4 7 -4 15 0 8 4 15 10 15 5 0 7 -7 4 -15z m5008 -54 c-39 -38
-40 -39 -45 -15 -5 27 17 50 53 56 14 2 27 3 29 1 2 -1 -14 -20 -37 -42z
m-5007 -51 c3 -6 -1 -13 -10 -16 -19 -8 -30 0 -20 15 8 14 22 14 30 1z m135
-40 c0 -5 -2 -10 -4 -10 -3 0 -8 5 -11 10 -3 6 -1 10 4 10 6 0 11 -4 11 -10z
m4730 7 c0 -2 -10 -12 -21 -23 -22 -19 -22 -19 -10 4 10 18 31 31 31 19z
m-4671 -73 c-8 -10 -15 -12 -22 -5 -7 7 -4 17 9 32 16 18 19 19 22 5 2 -9 -2
-24 -9 -32z m4594 -21 c-9 -13 -26 -26 -39 -29 -13 -3 -28 -12 -35 -20 -6 -8
-40 -28 -75 -45 -35 -16 -64 -35 -64 -41 0 -5 -6 -8 -14 -5 -8 3 -16 -2 -19
-12 -3 -13 -16 -20 -41 -23 -40 -4 -48 8 -13 21 13 5 29 17 37 26 8 10 31 28
50 40 19 12 60 47 91 78 41 41 62 55 77 52 12 -2 24 1 28 6 3 6 11 3 19 -7 11
-15 10 -22 -2 -41z m-4573 7 c0 -5 -4 -10 -10 -10 -5 0 -10 5 -10 10 0 6 5 10
10 10 6 0 10 -4 10 -10z m4293 -39 c-42 -42 -83 -68 -83 -52 0 6 6 15 13 20 6
6 28 24 47 40 51 44 68 38 23 -8z m-4263 -26 c0 -16 -27 -32 -37 -21 -7 7 16
36 28 36 5 0 9 -7 9 -15z m1757 -50 c-4 -8 -14 -15 -23 -15 -16 0 -16 2 1 20
20 22 31 20 22 -5z m873 -9 c0 -3 -4 -8 -10 -11 -5 -3 -10 -1 -10 4 0 6 5 11
10 11 6 0 10 -2 10 -4z m1555 -26 c-7 -11 -106 -60 -121 -60 -4 0 -16 -7 -26
-17 -10 -9 -18 -12 -18 -6 0 5 17 18 38 28 44 21 57 29 97 55 30 20 42 20 30
0z m-4008 -72 c-3 -8 -6 -5 -6 6 -1 11 2 17 5 13 3 -3 4 -12 1 -19z m-46 -19
c11 -11 18 -23 16 -26 -7 -6 -57 27 -57 38 0 15 19 10 41 -12z m133 12 c7 -10
-38 -61 -54 -61 -15 0 -13 8 11 41 21 30 34 36 43 20z m3296 -17 c0 -5 -58
-34 -67 -34 -14 1 38 37 53 37 8 0 14 -2 14 -3z m630 -24 c-84 -48 -110 -60
-110 -50 0 12 44 41 84 56 50 19 63 15 26 -6z m-1645 0 c-3 -5 -16 -15 -28
-21 -22 -12 -22 -12 -3 10 19 21 43 30 31 11z m895 6 c0 -2 -7 -6 -15 -10 -8
-3 -15 -1 -15 4 0 6 7 10 15 10 8 0 15 -2 15 -4z m-60 -16 c0 -5 -5 -10 -11
-10 -5 0 -7 5 -4 10 3 6 8 10 11 10 2 0 4 -4 4 -10z m328 -3 c-5 -14 -58 -23
-58 -9 0 14 7 17 35 20 18 1 25 -2 23 -11z m-3410 -19 c-3 -7 -13 -15 -24 -17
-16 -3 -17 -1 -5 13 16 19 34 21 29 4z m3586 -26 c3 -5 -1 -9 -9 -9 -8 0 -12
4 -9 9 3 4 7 8 9 8 2 0 6 -4 9 -8z m-34 -22 c0 -5 -7 -10 -15 -10 -8 0 -15 5
-15 10 0 6 7 10 15 10 8 0 15 -4 15 -10z m-3560 -58 c0 -4 -9 -13 -20 -20 -22
-13 -27 -3 -8 16 14 14 28 16 28 4z m40 -37 c-7 -14 -11 -28 -7 -31 10 -10
-12 -44 -29 -44 -13 0 -13 3 0 28 9 15 21 40 26 56 6 16 13 26 17 22 3 -3 0
-17 -7 -31z m2824 10 c3 -8 14 -12 26 -10 25 5 26 -9 0 -35 -19 -19 -20 -19
-20 -2 0 26 -10 33 -30 22 -17 -9 -60 -20 -94 -23 -35 -3 -27 19 11 36 68 28
99 32 107 12z m-317 -1 c-3 -3 -12 -4 -19 -1 -8 3 -5 6 6 6 11 1 17 -2 13 -5z
m403 -4 c0 -6 11 -15 25 -20 19 -7 25 -17 25 -39 0 -16 7 -37 16 -45 18 -19 6
-26 -38 -23 -26 2 -26 2 -7 20 19 17 19 21 5 36 -9 10 -16 25 -16 35 0 9 -7
19 -15 22 -17 7 -20 24 -5 24 6 0 10 -5 10 -10z m115 -1 c11 -16 1 -19 -13 -3
-7 8 -8 14 -3 14 5 0 13 -5 16 -11z m-410 -19 c-21 -8 -35 -4 -35 9 0 5 12 6
27 3 24 -5 25 -6 8 -12z m510 10 c3 -5 1 -10 -4 -10 -6 0 -11 5 -11 10 0 6 2
10 4 10 3 0 8 -4 11 -10z m-808 -30 c0 -16 -4 -27 -9 -24 -4 3 -8 12 -8 20 0
8 -8 14 -17 15 -12 1 -10 4 7 9 14 4 25 8 26 9 0 1 1 -12 1 -29z m-2187 -29
c0 -33 -10 -44 -28 -32 -10 6 -10 15 -3 34 14 36 31 34 31 -2z m2434 4 c-4 -8
-11 -15 -16 -15 -6 0 -5 6 2 15 7 8 14 15 16 15 2 0 1 -7 -2 -15z m-1312 -57
c-22 -26 -36 -22 -18 4 9 12 16 32 17 43 1 17 2 16 8 -5 5 -17 3 -31 -7 -42z
m538 52 c0 -5 -5 -10 -11 -10 -5 0 -7 5 -4 10 3 6 8 10 11 10 2 0 4 -4 4 -10z
m584 -49 c9 -15 -23 -36 -36 -23 -5 5 -7 15 -4 21 9 13 33 14 40 2z m-64 -62
c0 -18 -5 -24 -16 -21 -7 1 -15 -2 -19 -8 -8 -13 -41 -13 -68 1 l-21 12 22 8
c16 6 22 17 22 39 l0 30 40 -26 c22 -15 40 -31 40 -35z m165 21 c4 -6 -7 -10
-27 -9 -31 1 -32 1 -8 9 14 4 26 8 27 9 1 1 5 -3 8 -9z m-73 -22 c-9 -9 -15
-9 -24 0 -9 9 -7 12 12 12 19 0 21 -3 12 -12z m-852 -19 c0 -5 -4 -9 -8 -9 -5
0 -9 7 -9 15 0 8 4 12 9 9 4 -3 8 -9 8 -15z m220 5 c0 -8 -5 -12 -10 -9 -6 4
-8 11 -5 16 9 14 15 11 15 -7z m-1520 -3 c0 -6 -4 -13 -10 -16 -5 -3 -10 1
-10 9 0 9 5 16 10 16 6 0 10 -4 10 -9z m1740 -70 c0 -19 -26 -48 -36 -39 -7 7
17 58 28 58 4 0 8 -8 8 -19z m204 -9 c3 -5 -1 -9 -9 -9 -8 0 -15 4 -15 9 0 4
4 8 9 8 6 0 12 -4 15 -8z m-1844 -22 c0 -5 -4 -10 -10 -10 -5 0 -10 5 -10 10
0 6 5 10 10 10 6 0 10 -4 10 -10z m1500 4 c0 -12 -26 -30 -38 -26 -10 3 -10 7
-1 18 11 14 39 20 39 8z m280 -14 c5 8 12 11 17 7 9 -10 -16 -27 -39 -27 -12
0 -18 8 -18 23 1 22 1 22 16 2 12 -17 16 -18 24 -5z m-95 0 c3 -5 1 -10 -4
-10 -6 0 -11 5 -11 10 0 6 2 10 4 10 3 0 8 -4 11 -10z m-1385 -85 c0 -8 -7
-15 -15 -15 -26 0 -18 20 13 29 1 1 2 -6 2 -14z m87 -101 c-9 -9 -28 6 -21 18
4 6 10 6 17 -1 6 -6 8 -13 4 -17z m258 -14 c3 -5 2 -10 -4 -10 -5 0 -13 5 -16
10 -3 6 -2 10 4 10 5 0 13 -4 16 -10z"/>
<path d="M7166 9373 c-4 -9 -3 -20 2 -25 11 -11 36 17 27 32 -9 15 -22 12 -29
-7z"/>
<path d="M8830 4724 c0 -19 4 -33 8 -30 12 7 13 66 1 66 -5 0 -9 -16 -9 -36z"/>
<path d="M9050 4605 c0 -8 5 -15 10 -15 6 0 10 7 10 15 0 8 -4 15 -10 15 -5 0
-10 -7 -10 -15z"/>
<path d="M8775 4400 c3 -5 10 -10 16 -10 5 0 9 5 9 10 0 6 -7 10 -16 10 -8 0
-12 -4 -9 -10z"/>
<path d="M9210 4399 c0 -5 5 -7 10 -4 6 3 10 8 10 11 0 2 -4 4 -10 4 -5 0 -10
-5 -10 -11z"/>
<path d="M9190 4370 c0 -5 5 -10 11 -10 5 0 7 5 4 10 -3 6 -8 10 -11 10 -2 0
-4 -4 -4 -10z"/>
<path d="M8897 4303 c-4 -3 -1 -13 5 -21 7 -8 13 -20 14 -26 3 -24 17 -56 25
-56 18 0 20 22 4 40 -9 10 -14 24 -10 30 4 6 1 17 -5 25 -14 16 -23 19 -33 8z"/>
<path d="M8897 4183 c-4 -3 -2 -12 4 -20 8 -9 8 -13 1 -13 -6 0 -9 -18 -8 -44
3 -32 -1 -48 -13 -58 -13 -11 -18 -33 -19 -93 -1 -43 -7 -84 -13 -92 -16 -18
-2 -30 19 -17 9 6 18 24 19 40 1 16 5 40 9 54 4 14 8 32 8 41 1 9 9 26 20 38
14 16 16 24 8 34 -8 10 -8 17 -1 24 8 8 7 17 -1 33 -6 11 -12 34 -12 51 -1 28
-8 36 -21 22z"/>
<path d="M8950 4146 c0 -9 5 -16 10 -16 6 0 10 4 10 9 0 6 -4 13 -10 16 -5 3
-10 -1 -10 -9z"/>
<path d="M9156 4131 c-4 -5 -2 -12 3 -15 5 -4 12 -2 15 3 4 5 2 12 -3 15 -5 4
-12 2 -15 -3z"/>
<path d="M8774 4045 c-8 -21 10 -39 30 -32 22 9 20 24 -4 37 -16 9 -22 8 -26
-5z"/>
<path d="M8724 3984 c3 -9 6 -18 6 -20 0 -3 5 -2 10 1 16 10 12 35 -6 35 -11
0 -14 -5 -10 -16z"/>
<path d="M8950 3965 c0 -8 -4 -23 -9 -33 -24 -44 -30 -76 -34 -173 -1 -42 2
-60 16 -74 17 -16 20 -16 34 -2 20 20 10 47 -17 47 -23 0 -27 29 -8 48 9 9 9
12 0 12 -9 0 -8 8 3 30 8 16 15 37 15 47 0 10 8 35 19 55 13 26 15 40 8 47
-15 15 -27 14 -27 -4z"/>
<path d="M8707 3914 c-8 -8 1 -24 14 -24 5 0 9 7 9 15 0 15 -12 20 -23 9z"/>
<path d="M8860 3820 c0 -5 5 -10 11 -10 5 0 7 5 4 10 -3 6 -8 10 -11 10 -2 0
-4 -4 -4 -10z"/>
<path d="M8999 3756 c-1 -3 -2 -9 -3 -13 -1 -5 -5 -14 -9 -21 -10 -15 16 -27
39 -18 21 8 14 50 -8 54 -10 2 -19 1 -19 -2z"/>
<path d="M9017 3670 c-3 -10 1 -24 9 -31 11 -9 14 -7 14 14 0 32 -16 44 -23
17z"/>
<path d="M9020 3610 c0 -5 5 -10 10 -10 6 0 10 5 10 10 0 6 -4 10 -10 10 -5 0
-10 -4 -10 -10z"/>
<path d="M8930 3585 c0 -8 5 -15 10 -15 6 0 10 7 10 15 0 8 -4 15 -10 15 -5 0
-10 -7 -10 -15z"/>
<path d="M8815 3180 c3 -5 8 -10 11 -10 2 0 4 5 4 10 0 6 -5 10 -11 10 -5 0
-7 -4 -4 -10z"/>
<path d="M8760 3080 c0 -5 5 -10 11 -10 5 0 7 5 4 10 -3 6 -8 10 -11 10 -2 0
-4 -4 -4 -10z"/>
<path d="M8805 3049 c-7 -22 22 -52 39 -41 6 3 5 7 -2 10 -14 4 -16 32 -2 32
6 0 10 5 10 10 0 19 -39 10 -45 -11z"/>
<path d="M8793 2983 c-15 -5 -18 -33 -4 -33 8 0 25 30 19 35 -2 1 -9 0 -15 -2z"/>
<path d="M8710 2675 c0 -10 7 -15 18 -13 21 4 19 22 -2 26 -10 2 -16 -3 -16
-13z"/>
<path d="M8687 2624 c-22 -30 -22 -34 7 -34 31 0 36 9 22 36 l-11 21 -18 -23z"/>
<path d="M9185 2360 c-3 -5 1 -10 9 -10 9 0 16 5 16 10 0 6 -4 10 -9 10 -6 0
-13 -4 -16 -10z"/>
<path d="M840 8964 c0 -14 3 -14 15 -4 8 7 15 14 15 16 0 2 -7 4 -15 4 -8 0
-15 -7 -15 -16z"/>
<path d="M840 8770 c0 -5 5 -10 10 -10 6 0 10 5 10 10 0 6 -4 10 -10 10 -5 0
-10 -4 -10 -10z"/>
<path d="M8501 1864 c-12 -9 -28 -14 -35 -11 -28 11 -118 -58 -287 -221 -196
-187 -250 -230 -435 -347 -69 -44 -163 -111 -208 -149 -110 -94 -180 -138
-397 -250 -210 -110 -256 -147 -243 -199 4 -18 6 -55 5 -83 -1 -42 3 -57 28
-92 17 -23 43 -48 58 -55 24 -12 167 -30 225 -29 32 1 208 104 237 139 24 29
37 36 85 42 38 5 70 18 99 38 23 17 61 34 83 37 78 13 164 63 233 135 36 37
93 88 126 113 34 26 69 63 80 84 11 22 45 75 76 119 31 44 71 109 89 145 18
36 59 94 92 130 32 36 72 92 88 125 25 52 30 73 32 160 2 55 -1 113 -6 129 -6
21 -6 27 3 22 6 -4 11 -1 11 8 0 23 -15 27 -39 10z m-31 -89 c0 -8 -7 -15 -15
-15 -26 0 -18 20 13 29 1 1 2 -6 2 -14z m-22 -101 c-10 -10 -28 6 -28 24 0 15
1 15 17 -1 9 -9 14 -19 11 -23z m-58 -64 c0 -20 -27 -10 -38 15 -19 41 -14 48
13 21 14 -14 25 -30 25 -36z m-56 -42 c11 -15 12 -24 5 -29 -15 -9 -49 21 -42
37 7 20 20 17 37 -8z m-76 -77 c3 -8 -1 -12 -9 -9 -7 2 -15 10 -17 17 -3 8 1
12 9 9 7 -2 15 -10 17 -17z m2 -66 c0 -8 -7 -15 -15 -15 -26 0 -18 20 13 29 1
1 2 -6 2 -14z m-104 -156 c3 -6 -1 -17 -10 -25 -9 -8 -14 -11 -11 -8 2 4 -6
15 -18 25 l-22 18 27 1 c15 0 30 -5 34 -11z m-66 -109 c9 -16 8 -22 -5 -26
-21 -8 -39 10 -32 30 9 22 24 20 37 -4z m-102 -88 c2 -7 -7 -12 -22 -12 -14 0
-26 -5 -26 -12 0 -6 -3 -8 -7 -5 -8 9 28 47 41 43 6 -1 12 -8 14 -14z m-108
-72 c0 -5 -2 -10 -4 -10 -3 0 -8 5 -11 10 -3 6 -1 10 4 10 6 0 11 -4 11 -10z
m0 -49 c0 -5 -7 -11 -15 -15 -15 -5 -20 5 -8 17 9 10 23 9 23 -2z m-160 -61
c19 -27 19 -30 4 -30 -18 0 -43 27 -44 48 0 21 18 13 40 -18z m-340 -50 c0 -5
-5 -10 -11 -10 -5 0 -7 5 -4 10 3 6 8 10 11 10 2 0 4 -4 4 -10z m180 -32 c0
-12 -28 -9 -35 2 -4 6 -4 18 -1 27 6 14 8 14 21 -3 8 -10 15 -22 15 -26z"/>
<path d="M840 1770 c0 -5 5 -10 10 -10 6 0 10 5 10 10 0 6 -4 10 -10 10 -5 0
-10 -4 -10 -10z"/>
<path d="M840 1570 c0 -5 5 -10 10 -10 6 0 10 5 10 10 0 6 -4 10 -10 10 -5 0
-10 -4 -10 -10z"/>
<path d="M8040 1570 c0 -5 5 -10 10 -10 6 0 10 5 10 10 0 6 -4 10 -10 10 -5 0
-10 -4 -10 -10z"/>
</g>
</svg>
